M48
; DRILL file {KiCad 8.0.3-8.0.3-0~ubuntu20.04.1} date 2025-03-17T01:47:46-0300
; FORMAT={-:-/ absolute / metric / decimal}
; #@! TF.CreationDate,2025-03-17T01:47:46-03:00
; #@! TF.GenerationSoftware,Kicad,Pcbnew,8.0.3-8.0.3-0~ubuntu20.04.1
; #@! TF.FileFunction,Plated,1,2,PTH
FMAT,2
METRIC
; #@! TA.AperFunction,Plated,PTH,ViaDrill
T1C0.300
; #@! TA.AperFunction,Plated,PTH,ComponentDrill
T2C0.600
; #@! TA.AperFunction,Plated,PTH,ComponentDrill
T3C0.950
; #@! TA.AperFunction,Plated,PTH,ComponentDrill
T4C1.000
; #@! TA.AperFunction,Plated,PTH,ComponentDrill
T5C1.100
; #@! TA.AperFunction,Plated,PTH,ComponentDrill
T6C1.200
; #@! TA.AperFunction,Plated,PTH,ComponentDrill
T7C2.800
%
G90
G05
T1
X51.45Y-107.55
X52.0Y-57.5
X53.5Y-97.2
X56.5Y-101.0
X57.0Y-95.0
X59.0Y-73.0
X59.1Y-52.95
X59.35Y-106.65
X59.6Y-67.8
X60.0Y-91.0
X61.2Y-65.0
X61.2Y-107.8
X62.05Y-114.15
X62.2Y-111.05
X62.8Y-67.2
X63.0Y-64.7
X63.3Y-98.7
X63.4Y-103.1
X63.5Y-95.5
X64.0Y-90.5
X65.9Y-81.3
X66.0Y-56.5
X66.2Y-68.4
X66.8Y-103.0
X67.7Y-68.4
X67.9Y-83.6
X68.0Y-51.5
X68.0Y-73.0
X72.0Y-58.0
X72.1Y-60.0
X72.5Y-63.0
X72.8Y-55.0
X73.1Y-52.6
X73.3Y-65.3
X73.6Y-57.5
X73.65Y-99.9
X74.5Y-83.5
X75.3Y-98.7
X75.7Y-66.4
X76.0Y-79.5
X76.5Y-51.0
X76.5Y-97.15
X76.6Y-67.427
X76.8Y-63.573
X77.15Y-113.3
X77.75Y-103.95
X77.957Y-67.443
X78.5Y-71.5
X79.15Y-87.35
X79.5Y-80.6
X80.0Y-78.0
X81.5Y-56.5
X82.15Y-106.8
X82.25Y-74.85
X82.6Y-99.7
X84.2Y-87.1
X85.0Y-51.0
X85.5Y-67.0
X86.15Y-100.4
X87.3Y-79.8
X89.0Y-70.0
X89.25Y-83.35
X89.3Y-57.1
X89.7Y-51.2
X89.886Y-89.775
X90.3Y-54.6
X90.6Y-62.4
X92.9Y-80.1
X93.3Y-104.25
X93.8Y-113.45
X93.9Y-51.6
X93.9Y-79.6
X94.5Y-60.9
X94.5Y-63.1
X94.5Y-78.3
X94.8Y-70.75
X94.95Y-51.45
X95.2Y-91.0
X95.483Y-55.844
X95.5Y-58.9
X95.65Y-109.75
X96.3Y-89.0
X97.95Y-82.6
X98.1Y-51.8
X98.1Y-54.1
X98.15Y-87.2
X99.0Y-93.2
X100.1Y-70.05
X100.35Y-55.35
X101.15Y-62.95
X101.15Y-87.4
X101.5Y-56.5
X102.23Y-83.126
X102.95Y-51.35
X105.15Y-71.5
X105.15Y-95.65
X105.15Y-113.25
X105.3Y-62.3
X105.5Y-79.0
X107.6Y-90.65
X107.65Y-58.0
X108.0Y-68.2
X109.15Y-51.7
X109.65Y-92.3
X110.05Y-103.5
X110.4Y-79.5
X111.65Y-61.7
X112.0Y-89.6
X112.65Y-98.25
X114.5Y-55.2
X115.85Y-70.6
X121.1Y-85.3
X122.7Y-86.5
X123.55Y-101.8
X124.4Y-63.7
X125.453Y-69.024
X125.95Y-94.0
X126.25Y-60.3
X127.15Y-52.9
X128.35Y-102.05
X129.45Y-72.85
X130.55Y-108.65
X130.95Y-87.7
T3
X115.0Y-53.0
X115.0Y-60.8
X117.5Y-53.0
X117.5Y-60.8
X120.0Y-53.0
X120.0Y-60.8
X122.5Y-53.0
X122.5Y-60.8
X131.5Y-59.5
X131.5Y-62.0
X131.5Y-64.5
X131.5Y-67.0
X131.5Y-69.5
X131.5Y-76.0
X131.5Y-78.5
X131.5Y-81.0
X131.5Y-83.5
T4
X65.435Y-87.9
X67.975Y-87.9
X93.5Y-93.475
X93.5Y-96.015
X93.5Y-98.555
T5
X130.555Y-94.96
X130.555Y-97.5
X130.555Y-100.04
T6
X54.0Y-76.5
X54.0Y-81.5
X99.9Y-103.1
X104.9Y-103.1
X119.1Y-111.0
X124.1Y-111.0
T7
X80.4Y-111.4
X85.4Y-111.4
X90.4Y-111.4
T2
X53.325Y-62.18G85X52.525Y-62.18
G05
X53.325Y-70.82G85X52.525Y-70.82
G05
X57.655Y-62.18G85X56.555Y-62.18
G05
X57.655Y-70.82G85X56.555Y-70.82
G05
M30
