G04 #@! TF.GenerationSoftware,KiCad,Pcbnew,8.0.3-8.0.3-0~ubuntu20.04.1*
G04 #@! TF.CreationDate,2025-03-17T01:47:29-03:00*
G04 #@! TF.ProjectId,fuente_regulable,6675656e-7465-45f7-9265-67756c61626c,rev?*
G04 #@! TF.SameCoordinates,Original*
G04 #@! TF.FileFunction,Copper,L2,Bot*
G04 #@! TF.FilePolarity,Positive*
%FSLAX46Y46*%
G04 Gerber Fmt 4.6, Leading zero omitted, Abs format (unit mm)*
G04 Created by KiCad (PCBNEW 8.0.3-8.0.3-0~ubuntu20.04.1) date 2025-03-17 01:47:29*
%MOMM*%
%LPD*%
G01*
G04 APERTURE LIST*
G04 Aperture macros list*
%AMRoundRect*
0 Rectangle with rounded corners*
0 $1 Rounding radius*
0 $2 $3 $4 $5 $6 $7 $8 $9 X,Y pos of 4 corners*
0 Add a 4 corners polygon primitive as box body*
4,1,4,$2,$3,$4,$5,$6,$7,$8,$9,$2,$3,0*
0 Add four circle primitives for the rounded corners*
1,1,$1+$1,$2,$3*
1,1,$1+$1,$4,$5*
1,1,$1+$1,$6,$7*
1,1,$1+$1,$8,$9*
0 Add four rect primitives between the rounded corners*
20,1,$1+$1,$2,$3,$4,$5,0*
20,1,$1+$1,$4,$5,$6,$7,0*
20,1,$1+$1,$6,$7,$8,$9,0*
20,1,$1+$1,$8,$9,$2,$3,0*%
G04 Aperture macros list end*
G04 #@! TA.AperFunction,ComponentPad*
%ADD10R,1.700000X1.700000*%
G04 #@! TD*
G04 #@! TA.AperFunction,ComponentPad*
%ADD11O,1.700000X1.700000*%
G04 #@! TD*
G04 #@! TA.AperFunction,ComponentPad*
%ADD12R,2.000000X1.905000*%
G04 #@! TD*
G04 #@! TA.AperFunction,ComponentPad*
%ADD13O,2.000000X1.905000*%
G04 #@! TD*
G04 #@! TA.AperFunction,ComponentPad*
%ADD14R,2.400000X2.400000*%
G04 #@! TD*
G04 #@! TA.AperFunction,ComponentPad*
%ADD15C,2.400000*%
G04 #@! TD*
G04 #@! TA.AperFunction,ComponentPad*
%ADD16O,3.500000X5.500000*%
G04 #@! TD*
G04 #@! TA.AperFunction,ComponentPad*
%ADD17O,2.100000X1.000000*%
G04 #@! TD*
G04 #@! TA.AperFunction,ComponentPad*
%ADD18O,1.800000X1.000000*%
G04 #@! TD*
G04 #@! TA.AperFunction,ComponentPad*
%ADD19RoundRect,0.250000X-0.600000X-0.725000X0.600000X-0.725000X0.600000X0.725000X-0.600000X0.725000X0*%
G04 #@! TD*
G04 #@! TA.AperFunction,ComponentPad*
%ADD20O,1.700000X1.950000*%
G04 #@! TD*
G04 #@! TA.AperFunction,ComponentPad*
%ADD21RoundRect,0.250000X-0.725000X0.600000X-0.725000X-0.600000X0.725000X-0.600000X0.725000X0.600000X0*%
G04 #@! TD*
G04 #@! TA.AperFunction,ComponentPad*
%ADD22O,1.950000X1.700000*%
G04 #@! TD*
G04 #@! TA.AperFunction,ComponentPad*
%ADD23O,2.000000X4.000000*%
G04 #@! TD*
G04 #@! TA.AperFunction,ComponentPad*
%ADD24O,4.000000X2.000000*%
G04 #@! TD*
G04 #@! TA.AperFunction,ViaPad*
%ADD25C,0.600000*%
G04 #@! TD*
G04 #@! TA.AperFunction,Conductor*
%ADD26C,1.016000*%
G04 #@! TD*
G04 #@! TA.AperFunction,Conductor*
%ADD27C,0.254000*%
G04 #@! TD*
G04 APERTURE END LIST*
D10*
X93500000Y-93475000D03*
D11*
X93500000Y-96015000D03*
X93500000Y-98555000D03*
D12*
X130555000Y-94960000D03*
D13*
X130555000Y-97500000D03*
X130555000Y-100040000D03*
D14*
X104900000Y-103100000D03*
D15*
X99900000Y-103100000D03*
D16*
X80400000Y-111400000D03*
X85400000Y-111400000D03*
X90400000Y-111400000D03*
D17*
X57105000Y-62180000D03*
D18*
X52925000Y-62180000D03*
D17*
X57105000Y-70820000D03*
D18*
X52925000Y-70820000D03*
D19*
X115000000Y-60800000D03*
D20*
X117500000Y-60800000D03*
X120000000Y-60800000D03*
X122500000Y-60800000D03*
D19*
X115000000Y-53000000D03*
D20*
X117500000Y-53000000D03*
X120000000Y-53000000D03*
X122500000Y-53000000D03*
D21*
X131500000Y-59500000D03*
D22*
X131500000Y-62000000D03*
X131500000Y-64500000D03*
X131500000Y-67000000D03*
X131500000Y-69500000D03*
D21*
X131500000Y-76000000D03*
D22*
X131500000Y-78500000D03*
X131500000Y-81000000D03*
X131500000Y-83500000D03*
D23*
X124100000Y-111000000D03*
X119100000Y-111000000D03*
D10*
X67975000Y-87900000D03*
D11*
X65435000Y-87900000D03*
D24*
X54000000Y-81500000D03*
X54000000Y-76500000D03*
D25*
X127150000Y-52900000D03*
X130550000Y-108650000D03*
X93800000Y-113450000D03*
X93300000Y-104250000D03*
X86150000Y-100400000D03*
X89885799Y-89774617D03*
X94800000Y-70750000D03*
X108000000Y-68200000D03*
X94500000Y-60900000D03*
X98100000Y-54100000D03*
X95482693Y-55844055D03*
X94950000Y-51450000D03*
X102950000Y-51350000D03*
X100350000Y-55350000D03*
X59100000Y-52950000D03*
X105150000Y-71500000D03*
X100100000Y-70050000D03*
X101150000Y-62950000D03*
X90600000Y-62400000D03*
X107650000Y-58000000D03*
X114500000Y-55200000D03*
X109150000Y-51700000D03*
X111650000Y-61700000D03*
X126250000Y-60300000D03*
X125453204Y-69024489D03*
X129450000Y-72850000D03*
X115850000Y-70600000D03*
X110400000Y-79500000D03*
X122700000Y-86500000D03*
X125950000Y-94000000D03*
X130950000Y-87700000D03*
X128350000Y-102050000D03*
X123550000Y-101800000D03*
X110050000Y-103500000D03*
X109650000Y-92300000D03*
X105150000Y-95650000D03*
X112650000Y-98250000D03*
X105150000Y-113250000D03*
X95650000Y-109750000D03*
X82600000Y-99700000D03*
X99000000Y-93200000D03*
X107600000Y-90650000D03*
X101150000Y-87400000D03*
X102229915Y-83126296D03*
X97950000Y-82600000D03*
X98150000Y-87200000D03*
X87300000Y-79800000D03*
X82250000Y-74850000D03*
X89250000Y-83350000D03*
X79150000Y-87350000D03*
X65900000Y-81300000D03*
X76500000Y-97150000D03*
X82150000Y-106800000D03*
X77150000Y-113300000D03*
X51450000Y-107550000D03*
X59350000Y-106650000D03*
X62200000Y-111050000D03*
X62050000Y-114150000D03*
X77750000Y-103950000D03*
X73650000Y-99900000D03*
X63300000Y-98700000D03*
X63500000Y-95500000D03*
X57000000Y-95000000D03*
X56500000Y-101000000D03*
X68000000Y-73000000D03*
X59000000Y-73000000D03*
X60000000Y-91000000D03*
X64000000Y-90500000D03*
X74500000Y-83500000D03*
X76000000Y-79500000D03*
X80000000Y-78000000D03*
X78500000Y-71500000D03*
X85500000Y-67000000D03*
X89000000Y-70000000D03*
X72500000Y-63000000D03*
X85000000Y-51000000D03*
X76500000Y-51000000D03*
X81500000Y-56500000D03*
X66000000Y-56500000D03*
X52000000Y-57500000D03*
X89300000Y-57100000D03*
X89700000Y-51200000D03*
X63400000Y-103100000D03*
X62800000Y-67200000D03*
X63000000Y-64700000D03*
X66200000Y-68400000D03*
X59600000Y-67800000D03*
X67700000Y-68400000D03*
X61200000Y-65000000D03*
X121100000Y-85300000D03*
X98100000Y-51800000D03*
X93900000Y-51600000D03*
X72800000Y-55000000D03*
X90300000Y-54600000D03*
X124400000Y-63700000D03*
X105300000Y-62300000D03*
X101500000Y-56500000D03*
X94500000Y-63100000D03*
X76800000Y-63573000D03*
X73300000Y-65300000D03*
X73100000Y-52600000D03*
X95500000Y-58900000D03*
X79500000Y-80600000D03*
X72100000Y-60000000D03*
X72000000Y-58000000D03*
X73600000Y-57500000D03*
X112000000Y-89600000D03*
X95200000Y-91000000D03*
X105500000Y-79000000D03*
X96300000Y-89000000D03*
X84200000Y-87100000D03*
X92900000Y-80100000D03*
X76600000Y-67427000D03*
X93900000Y-79600000D03*
X77956644Y-67443356D03*
X94500000Y-78300000D03*
X75700000Y-66400000D03*
X67900000Y-83600000D03*
X53500000Y-97200000D03*
X75300000Y-98700000D03*
X61200000Y-107800000D03*
X66800000Y-103000000D03*
X68000000Y-51500000D03*
D26*
X95200000Y-91000000D02*
X94950000Y-91250000D01*
X94950000Y-91250000D02*
X92050000Y-91250000D01*
X85050000Y-110500000D02*
X80500000Y-110500000D01*
X92050000Y-91250000D02*
X88250000Y-95050000D01*
X85050000Y-108450000D02*
X85050000Y-110500000D01*
X88250000Y-95050000D02*
X88250000Y-105250000D01*
X88250000Y-105250000D02*
X85050000Y-108450000D01*
X93500000Y-98555000D02*
X90350000Y-101705000D01*
X90350000Y-101705000D02*
X90350000Y-110350000D01*
X90350000Y-110350000D02*
X90500000Y-110500000D01*
X79500000Y-80600000D02*
X80008000Y-81108000D01*
X80008000Y-81108000D02*
X99692000Y-81108000D01*
X126900000Y-81000000D02*
X131500000Y-81000000D01*
X99692000Y-81108000D02*
X103300000Y-77500000D01*
X103300000Y-77500000D02*
X123400000Y-77500000D01*
X123400000Y-77500000D02*
X126900000Y-81000000D01*
X66800000Y-103000000D02*
X66800000Y-104800000D01*
X66800000Y-104800000D02*
X63800000Y-107800000D01*
X63800000Y-107800000D02*
X61200000Y-107800000D01*
D27*
X67700000Y-68400000D02*
X67000000Y-67700000D01*
X67000000Y-67700000D02*
X64800000Y-67700000D01*
X62100000Y-65000000D02*
X61200000Y-65000000D01*
X64800000Y-67700000D02*
X62100000Y-65000000D01*
X66200000Y-68400000D02*
X60200000Y-68400000D01*
X60200000Y-68400000D02*
X59600000Y-67800000D01*
X73200000Y-54600000D02*
X72800000Y-55000000D01*
X90300000Y-54600000D02*
X73200000Y-54600000D01*
D26*
X124400000Y-63700000D02*
X106700000Y-63700000D01*
X106700000Y-63700000D02*
X105300000Y-62300000D01*
D27*
X94500000Y-63100000D02*
X94900000Y-63100000D01*
X94900000Y-63100000D02*
X101500000Y-56500000D01*
X73500000Y-65100000D02*
X81000000Y-65100000D01*
X73300000Y-65300000D02*
X73500000Y-65100000D01*
X125054000Y-74654000D02*
X128900000Y-78500000D01*
X81000000Y-65100000D02*
X90554000Y-74654000D01*
X90554000Y-74654000D02*
X125054000Y-74654000D01*
X128900000Y-78500000D02*
X131500000Y-78500000D01*
X76800000Y-63573000D02*
X80373000Y-63573000D01*
X80373000Y-63573000D02*
X91000000Y-74200000D01*
X91000000Y-74200000D02*
X125242053Y-74200000D01*
X127042053Y-76000000D02*
X131500000Y-76000000D01*
X125242053Y-74200000D02*
X127042053Y-76000000D01*
X131500000Y-64500000D02*
X127784104Y-64500000D01*
X127784104Y-64500000D02*
X126542052Y-65742053D01*
X126542052Y-65742053D02*
X126276105Y-66008000D01*
X126276105Y-66008000D02*
X85365948Y-66008000D01*
X85365948Y-66008000D02*
X79357948Y-60000000D01*
X79357948Y-60000000D02*
X72100000Y-60000000D01*
X72000000Y-58000000D02*
X73200000Y-59200000D01*
X73200000Y-59200000D02*
X79200000Y-59200000D01*
X129642052Y-62000000D02*
X131500000Y-62000000D01*
X79200000Y-59200000D02*
X85554000Y-65554000D01*
X85554000Y-65554000D02*
X126088052Y-65554000D01*
X126088052Y-65554000D02*
X129642052Y-62000000D01*
X131500000Y-59500000D02*
X125900000Y-65100000D01*
X125900000Y-65100000D02*
X85800000Y-65100000D01*
X85800000Y-65100000D02*
X78200000Y-57500000D01*
X78200000Y-57500000D02*
X73600000Y-57500000D01*
D26*
X90000000Y-52600000D02*
X95300000Y-57900000D01*
X95300000Y-57900000D02*
X95500000Y-58100000D01*
X73100000Y-52600000D02*
X90000000Y-52600000D01*
X95500000Y-58100000D02*
X95500000Y-58900000D01*
X97800000Y-85300000D02*
X97000000Y-85300000D01*
X112000000Y-89600000D02*
X107700000Y-85300000D01*
X97000000Y-85300000D02*
X70575000Y-85300000D01*
X107700000Y-85300000D02*
X97000000Y-85300000D01*
X105500000Y-79000000D02*
X104100000Y-79000000D01*
X70575000Y-85300000D02*
X67975000Y-87900000D01*
X104100000Y-79000000D02*
X97800000Y-85300000D01*
X94400000Y-87100000D02*
X84200000Y-87100000D01*
X96300000Y-89000000D02*
X94400000Y-87100000D01*
D27*
X92900000Y-80100000D02*
X92054000Y-79254000D01*
X92054000Y-79254000D02*
X89369895Y-79254000D01*
X89369895Y-79254000D02*
X78515895Y-68400000D01*
X78515895Y-68400000D02*
X77573000Y-68400000D01*
X77573000Y-68400000D02*
X76600000Y-67427000D01*
X77956644Y-67443356D02*
X78201304Y-67443356D01*
X78201304Y-67443356D02*
X89557948Y-78800000D01*
X89557948Y-78800000D02*
X93100000Y-78800000D01*
X93100000Y-78800000D02*
X93900000Y-79600000D01*
X75700000Y-66400000D02*
X75900000Y-66200000D01*
X75900000Y-66200000D02*
X77600000Y-66200000D01*
X77600000Y-66200000D02*
X89700000Y-78300000D01*
X89700000Y-78300000D02*
X94500000Y-78300000D01*
D26*
X67900000Y-83600000D02*
X65500000Y-83600000D01*
X65500000Y-83600000D02*
X61500000Y-87600000D01*
X61500000Y-87600000D02*
X61500000Y-97200000D01*
X73800000Y-97200000D02*
X61500000Y-97200000D01*
X61500000Y-97200000D02*
X53500000Y-97200000D01*
X75300000Y-98700000D02*
X73800000Y-97200000D01*
G04 #@! TA.AperFunction,Conductor*
G36*
X131568783Y-50520185D02*
G01*
X131614538Y-50572989D01*
X131624482Y-50642147D01*
X131595457Y-50705703D01*
X131561171Y-50733332D01*
X131415690Y-50812770D01*
X131415682Y-50812775D01*
X131186612Y-50984254D01*
X131186594Y-50984270D01*
X130984270Y-51186594D01*
X130984254Y-51186612D01*
X130812775Y-51415682D01*
X130812770Y-51415690D01*
X130675635Y-51666833D01*
X130575628Y-51934962D01*
X130514804Y-52214566D01*
X130494390Y-52499998D01*
X130494390Y-52500001D01*
X130514804Y-52785433D01*
X130575628Y-53065037D01*
X130575630Y-53065043D01*
X130575631Y-53065046D01*
X130660153Y-53291657D01*
X130675635Y-53333166D01*
X130812770Y-53584309D01*
X130812775Y-53584317D01*
X130984254Y-53813387D01*
X130984270Y-53813405D01*
X131186594Y-54015729D01*
X131186612Y-54015745D01*
X131415682Y-54187224D01*
X131415690Y-54187229D01*
X131666833Y-54324364D01*
X131666832Y-54324364D01*
X131666836Y-54324365D01*
X131666839Y-54324367D01*
X131934954Y-54424369D01*
X131934960Y-54424370D01*
X131934962Y-54424371D01*
X132214566Y-54485195D01*
X132214568Y-54485195D01*
X132214572Y-54485196D01*
X132468220Y-54503337D01*
X132499999Y-54505610D01*
X132500000Y-54505610D01*
X132500001Y-54505610D01*
X132528595Y-54503564D01*
X132785428Y-54485196D01*
X132880544Y-54464505D01*
X133065037Y-54424371D01*
X133065037Y-54424370D01*
X133065046Y-54424369D01*
X133333161Y-54324367D01*
X133584315Y-54187226D01*
X133813395Y-54015739D01*
X134015739Y-53813395D01*
X134187226Y-53584315D01*
X134236694Y-53493721D01*
X134266668Y-53438829D01*
X134316073Y-53389424D01*
X134384346Y-53374572D01*
X134449811Y-53398989D01*
X134491682Y-53454923D01*
X134499500Y-53498256D01*
X134499500Y-111501743D01*
X134479815Y-111568782D01*
X134427011Y-111614537D01*
X134357853Y-111624481D01*
X134294297Y-111595456D01*
X134266668Y-111561170D01*
X134187229Y-111415690D01*
X134187224Y-111415682D01*
X134015745Y-111186612D01*
X134015729Y-111186594D01*
X133813405Y-110984270D01*
X133813387Y-110984254D01*
X133584317Y-110812775D01*
X133584309Y-110812770D01*
X133333166Y-110675635D01*
X133333167Y-110675635D01*
X133215083Y-110631592D01*
X133065046Y-110575631D01*
X133065043Y-110575630D01*
X133065037Y-110575628D01*
X132785433Y-110514804D01*
X132500001Y-110494390D01*
X132499999Y-110494390D01*
X132214566Y-110514804D01*
X131934962Y-110575628D01*
X131666833Y-110675635D01*
X131415690Y-110812770D01*
X131415682Y-110812775D01*
X131186612Y-110984254D01*
X131186594Y-110984270D01*
X130984270Y-111186594D01*
X130984254Y-111186612D01*
X130812775Y-111415682D01*
X130812770Y-111415690D01*
X130675635Y-111666833D01*
X130575628Y-111934962D01*
X130514804Y-112214566D01*
X130494390Y-112499998D01*
X130494390Y-112500001D01*
X130514804Y-112785433D01*
X130575628Y-113065037D01*
X130575630Y-113065043D01*
X130575631Y-113065046D01*
X130657052Y-113283343D01*
X130675635Y-113333166D01*
X130812770Y-113584309D01*
X130812775Y-113584317D01*
X130984254Y-113813387D01*
X130984270Y-113813405D01*
X131186594Y-114015729D01*
X131186612Y-114015745D01*
X131415682Y-114187224D01*
X131415690Y-114187229D01*
X131561171Y-114266668D01*
X131610576Y-114316073D01*
X131625428Y-114384346D01*
X131601011Y-114449811D01*
X131545077Y-114491682D01*
X131501744Y-114499500D01*
X91726022Y-114499500D01*
X91658983Y-114479815D01*
X91613228Y-114427011D01*
X91603284Y-114357853D01*
X91632309Y-114294297D01*
X91650536Y-114277124D01*
X91652994Y-114275238D01*
X91887042Y-114095646D01*
X92095646Y-113887042D01*
X92275238Y-113652994D01*
X92422743Y-113397507D01*
X92535639Y-113124952D01*
X92611993Y-112839993D01*
X92650500Y-112547506D01*
X92650500Y-110252494D01*
X92611993Y-109960007D01*
X92591065Y-109881902D01*
X117599500Y-109881902D01*
X117599500Y-112118097D01*
X117636446Y-112351368D01*
X117709433Y-112575996D01*
X117770066Y-112694993D01*
X117816657Y-112786433D01*
X117955483Y-112977510D01*
X118122490Y-113144517D01*
X118313567Y-113283343D01*
X118407205Y-113331054D01*
X118524003Y-113390566D01*
X118524005Y-113390566D01*
X118524008Y-113390568D01*
X118625110Y-113423418D01*
X118748631Y-113463553D01*
X118981903Y-113500500D01*
X118981908Y-113500500D01*
X119218097Y-113500500D01*
X119451368Y-113463553D01*
X119452876Y-113463063D01*
X119675992Y-113390568D01*
X119886433Y-113283343D01*
X120077510Y-113144517D01*
X120244517Y-112977510D01*
X120383343Y-112786433D01*
X120490568Y-112575992D01*
X120563553Y-112351368D01*
X120570896Y-112305007D01*
X120600500Y-112118097D01*
X120600500Y-109881947D01*
X122600000Y-109881947D01*
X122600000Y-110750000D01*
X123551518Y-110750000D01*
X123540889Y-110768409D01*
X123500000Y-110921009D01*
X123500000Y-111078991D01*
X123540889Y-111231591D01*
X123551518Y-111250000D01*
X122600000Y-111250000D01*
X122600000Y-112118052D01*
X122636934Y-112351247D01*
X122709897Y-112575802D01*
X122817085Y-112786171D01*
X122955866Y-112977186D01*
X123122813Y-113144133D01*
X123313828Y-113282914D01*
X123524195Y-113390102D01*
X123748744Y-113463063D01*
X123748750Y-113463065D01*
X123850000Y-113479101D01*
X123850000Y-111548482D01*
X123868409Y-111559111D01*
X124021009Y-111600000D01*
X124178991Y-111600000D01*
X124331591Y-111559111D01*
X124350000Y-111548482D01*
X124350000Y-113479100D01*
X124451249Y-113463065D01*
X124451255Y-113463063D01*
X124675804Y-113390102D01*
X124886171Y-113282914D01*
X125077186Y-113144133D01*
X125244133Y-112977186D01*
X125382914Y-112786171D01*
X125490102Y-112575802D01*
X125563065Y-112351247D01*
X125600000Y-112118052D01*
X125600000Y-111250000D01*
X124648482Y-111250000D01*
X124659111Y-111231591D01*
X124700000Y-111078991D01*
X124700000Y-110921009D01*
X124659111Y-110768409D01*
X124648482Y-110750000D01*
X125600000Y-110750000D01*
X125600000Y-109881947D01*
X125563065Y-109648752D01*
X125490102Y-109424197D01*
X125382914Y-109213828D01*
X125244133Y-109022813D01*
X125077186Y-108855866D01*
X124886171Y-108717085D01*
X124675802Y-108609897D01*
X124451247Y-108536934D01*
X124350000Y-108520897D01*
X124350000Y-110451517D01*
X124331591Y-110440889D01*
X124178991Y-110400000D01*
X124021009Y-110400000D01*
X123868409Y-110440889D01*
X123850000Y-110451517D01*
X123850000Y-108520897D01*
X123748752Y-108536934D01*
X123524197Y-108609897D01*
X123313828Y-108717085D01*
X123122813Y-108855866D01*
X122955866Y-109022813D01*
X122817085Y-109213828D01*
X122709897Y-109424197D01*
X122636934Y-109648752D01*
X122600000Y-109881947D01*
X120600500Y-109881947D01*
X120600500Y-109881902D01*
X120563553Y-109648631D01*
X120529689Y-109544412D01*
X120490568Y-109424008D01*
X120490566Y-109424005D01*
X120490566Y-109424003D01*
X120434002Y-109312991D01*
X120383343Y-109213567D01*
X120244517Y-109022490D01*
X120077510Y-108855483D01*
X119886433Y-108716657D01*
X119841411Y-108693717D01*
X119675996Y-108609433D01*
X119451368Y-108536446D01*
X119218097Y-108499500D01*
X119218092Y-108499500D01*
X118981908Y-108499500D01*
X118981903Y-108499500D01*
X118748631Y-108536446D01*
X118524003Y-108609433D01*
X118313566Y-108716657D01*
X118240499Y-108769744D01*
X118122490Y-108855483D01*
X118122488Y-108855485D01*
X118122487Y-108855485D01*
X117955485Y-109022487D01*
X117955485Y-109022488D01*
X117955483Y-109022490D01*
X117895862Y-109104550D01*
X117816657Y-109213566D01*
X117709433Y-109424003D01*
X117636446Y-109648631D01*
X117599500Y-109881902D01*
X92591065Y-109881902D01*
X92535639Y-109675048D01*
X92422743Y-109402493D01*
X92275238Y-109147006D01*
X92095646Y-108912958D01*
X92095641Y-108912952D01*
X91887047Y-108704358D01*
X91887040Y-108704352D01*
X91652993Y-108524761D01*
X91420500Y-108390531D01*
X91372284Y-108339964D01*
X91358500Y-108283144D01*
X91358500Y-103099995D01*
X98195233Y-103099995D01*
X98195233Y-103100004D01*
X98214273Y-103354079D01*
X98270968Y-103602477D01*
X98270973Y-103602494D01*
X98364058Y-103839671D01*
X98364057Y-103839671D01*
X98491454Y-104060327D01*
X98491461Y-104060338D01*
X98533452Y-104112991D01*
X98533453Y-104112992D01*
X99335387Y-103311058D01*
X99340889Y-103331591D01*
X99419881Y-103468408D01*
X99531592Y-103580119D01*
X99668409Y-103659111D01*
X99688940Y-103664612D01*
X98886813Y-104466738D01*
X99047616Y-104576371D01*
X99047624Y-104576376D01*
X99277176Y-104686921D01*
X99277174Y-104686921D01*
X99520652Y-104762024D01*
X99520658Y-104762026D01*
X99772595Y-104799999D01*
X99772604Y-104800000D01*
X100027396Y-104800000D01*
X100027404Y-104799999D01*
X100279341Y-104762026D01*
X100279347Y-104762024D01*
X100522824Y-104686921D01*
X100752376Y-104576376D01*
X100752377Y-104576375D01*
X100913185Y-104466738D01*
X100111060Y-103664612D01*
X100131591Y-103659111D01*
X100268408Y-103580119D01*
X100380119Y-103468408D01*
X100459111Y-103331591D01*
X100464612Y-103311059D01*
X101266544Y-104112992D01*
X101266546Y-104112991D01*
X101308544Y-104060330D01*
X101435941Y-103839671D01*
X101529026Y-103602494D01*
X101529031Y-103602477D01*
X101585726Y-103354079D01*
X101604767Y-103100004D01*
X101604767Y-103099995D01*
X101585726Y-102845920D01*
X101529031Y-102597522D01*
X101529026Y-102597505D01*
X101435941Y-102360328D01*
X101435942Y-102360328D01*
X101308545Y-102139672D01*
X101266545Y-102087006D01*
X100464612Y-102888939D01*
X100459111Y-102868409D01*
X100380119Y-102731592D01*
X100268408Y-102619881D01*
X100131591Y-102540889D01*
X100111059Y-102535387D01*
X100794310Y-101852135D01*
X103199500Y-101852135D01*
X103199500Y-104347870D01*
X103199501Y-104347876D01*
X103205908Y-104407483D01*
X103256202Y-104542328D01*
X103256206Y-104542335D01*
X103342452Y-104657544D01*
X103342455Y-104657547D01*
X103457664Y-104743793D01*
X103457671Y-104743797D01*
X103592517Y-104794091D01*
X103592516Y-104794091D01*
X103599444Y-104794835D01*
X103652127Y-104800500D01*
X106147872Y-104800499D01*
X106207483Y-104794091D01*
X106342331Y-104743796D01*
X106457546Y-104657546D01*
X106543796Y-104542331D01*
X106594091Y-104407483D01*
X106600500Y-104347873D01*
X106600499Y-101852128D01*
X106594091Y-101792517D01*
X106571989Y-101733259D01*
X106543797Y-101657671D01*
X106543793Y-101657664D01*
X106457547Y-101542455D01*
X106457544Y-101542452D01*
X106342335Y-101456206D01*
X106342328Y-101456202D01*
X106207482Y-101405908D01*
X106207483Y-101405908D01*
X106147883Y-101399501D01*
X106147881Y-101399500D01*
X106147873Y-101399500D01*
X106147864Y-101399500D01*
X103652129Y-101399500D01*
X103652123Y-101399501D01*
X103592516Y-101405908D01*
X103457671Y-101456202D01*
X103457664Y-101456206D01*
X103342455Y-101542452D01*
X103342452Y-101542455D01*
X103256206Y-101657664D01*
X103256202Y-101657671D01*
X103205908Y-101792517D01*
X103199501Y-101852116D01*
X103199501Y-101852123D01*
X103199500Y-101852135D01*
X100794310Y-101852135D01*
X100913185Y-101733260D01*
X100752384Y-101623628D01*
X100752376Y-101623623D01*
X100522823Y-101513078D01*
X100522825Y-101513078D01*
X100279347Y-101437975D01*
X100279341Y-101437973D01*
X100027404Y-101400000D01*
X99772595Y-101400000D01*
X99520658Y-101437973D01*
X99520652Y-101437975D01*
X99277175Y-101513078D01*
X99047622Y-101623625D01*
X99047609Y-101623632D01*
X98886813Y-101733259D01*
X99688941Y-102535387D01*
X99668409Y-102540889D01*
X99531592Y-102619881D01*
X99419881Y-102731592D01*
X99340889Y-102868409D01*
X99335387Y-102888940D01*
X98533452Y-102087006D01*
X98491457Y-102139667D01*
X98364058Y-102360328D01*
X98270973Y-102597505D01*
X98270968Y-102597522D01*
X98214273Y-102845920D01*
X98195233Y-103099995D01*
X91358500Y-103099995D01*
X91358500Y-102174096D01*
X91378185Y-102107057D01*
X91394819Y-102086415D01*
X92419115Y-101062119D01*
X93545430Y-99935803D01*
X93606751Y-99902320D01*
X93622294Y-99899959D01*
X93735408Y-99890063D01*
X93963663Y-99828903D01*
X94177830Y-99729035D01*
X94371401Y-99593495D01*
X94538495Y-99426401D01*
X94674035Y-99232830D01*
X94773903Y-99018663D01*
X94835063Y-98790408D01*
X94855659Y-98555000D01*
X94835063Y-98319592D01*
X94773903Y-98091337D01*
X94674035Y-97877171D01*
X94650025Y-97842880D01*
X94538494Y-97683597D01*
X94371402Y-97516506D01*
X94371396Y-97516501D01*
X94185842Y-97386575D01*
X94142217Y-97331998D01*
X94135023Y-97262500D01*
X94166546Y-97200145D01*
X94185842Y-97183425D01*
X94219653Y-97159750D01*
X94371401Y-97053495D01*
X94538495Y-96886401D01*
X94674035Y-96692830D01*
X94773903Y-96478663D01*
X94835063Y-96250408D01*
X94855659Y-96015000D01*
X94835063Y-95779592D01*
X94773903Y-95551337D01*
X94674035Y-95337171D01*
X94538495Y-95143599D01*
X94416567Y-95021671D01*
X94383084Y-94960351D01*
X94388068Y-94890659D01*
X94429939Y-94834725D01*
X94460915Y-94817810D01*
X94592331Y-94768796D01*
X94707546Y-94682546D01*
X94793796Y-94567331D01*
X94844091Y-94432483D01*
X94850500Y-94372873D01*
X94850500Y-93959635D01*
X129054500Y-93959635D01*
X129054500Y-95960370D01*
X129054501Y-95960376D01*
X129060908Y-96019983D01*
X129111202Y-96154828D01*
X129111206Y-96154835D01*
X129197452Y-96270044D01*
X129197454Y-96270046D01*
X129312664Y-96356293D01*
X129312669Y-96356296D01*
X129340539Y-96366690D01*
X129396473Y-96408561D01*
X129420891Y-96474024D01*
X129406040Y-96542298D01*
X129397525Y-96555759D01*
X129264783Y-96738461D01*
X129160950Y-96942244D01*
X129090278Y-97159750D01*
X129090278Y-97159753D01*
X129070441Y-97285000D01*
X129054500Y-97385646D01*
X129054500Y-97614354D01*
X129072389Y-97727299D01*
X129090278Y-97840246D01*
X129090278Y-97840249D01*
X129160950Y-98057755D01*
X129218012Y-98169745D01*
X129264783Y-98261538D01*
X129399214Y-98446566D01*
X129560934Y-98608286D01*
X129630423Y-98658773D01*
X129645438Y-98669682D01*
X129688103Y-98725013D01*
X129694082Y-98794626D01*
X129661476Y-98856421D01*
X129645438Y-98870318D01*
X129560932Y-98931715D01*
X129399216Y-99093431D01*
X129399216Y-99093432D01*
X129399214Y-99093434D01*
X129341480Y-99172896D01*
X129264783Y-99278461D01*
X129160950Y-99482244D01*
X129090278Y-99699750D01*
X129090278Y-99699753D01*
X129054500Y-99925646D01*
X129054500Y-100154353D01*
X129090278Y-100380246D01*
X129090278Y-100380249D01*
X129160950Y-100597755D01*
X129160952Y-100597758D01*
X129264783Y-100801538D01*
X129399214Y-100986566D01*
X129560934Y-101148286D01*
X129745962Y-101282717D01*
X129949742Y-101386548D01*
X129949744Y-101386549D01*
X130167251Y-101457221D01*
X130167252Y-101457221D01*
X130167255Y-101457222D01*
X130393146Y-101493000D01*
X130393147Y-101493000D01*
X130716853Y-101493000D01*
X130716854Y-101493000D01*
X130942745Y-101457222D01*
X130942748Y-101457221D01*
X130942749Y-101457221D01*
X131160255Y-101386549D01*
X131160255Y-101386548D01*
X131160258Y-101386548D01*
X131364038Y-101282717D01*
X131549066Y-101148286D01*
X131710786Y-100986566D01*
X131845217Y-100801538D01*
X131949048Y-100597758D01*
X132019722Y-100380245D01*
X132055500Y-100154354D01*
X132055500Y-99925646D01*
X132019722Y-99699755D01*
X132019721Y-99699751D01*
X132019721Y-99699750D01*
X131949049Y-99482244D01*
X131920596Y-99426402D01*
X131845217Y-99278462D01*
X131710786Y-99093434D01*
X131549066Y-98931714D01*
X131464559Y-98870316D01*
X131421896Y-98814988D01*
X131415917Y-98745375D01*
X131448523Y-98683580D01*
X131464556Y-98669685D01*
X131549066Y-98608286D01*
X131710786Y-98446566D01*
X131845217Y-98261538D01*
X131949048Y-98057758D01*
X132019722Y-97840245D01*
X132055500Y-97614354D01*
X132055500Y-97385646D01*
X132019722Y-97159755D01*
X132019721Y-97159751D01*
X132019721Y-97159750D01*
X131949049Y-96942244D01*
X131920596Y-96886402D01*
X131845217Y-96738462D01*
X131712472Y-96555755D01*
X131688994Y-96489953D01*
X131704819Y-96421899D01*
X131754925Y-96373204D01*
X131769455Y-96366692D01*
X131797331Y-96356296D01*
X131912546Y-96270046D01*
X131998796Y-96154831D01*
X132049091Y-96019983D01*
X132055500Y-95960373D01*
X132055499Y-93959628D01*
X132049091Y-93900017D01*
X131998796Y-93765169D01*
X131998795Y-93765168D01*
X131998793Y-93765164D01*
X131912547Y-93649955D01*
X131912544Y-93649952D01*
X131797335Y-93563706D01*
X131797328Y-93563702D01*
X131662482Y-93513408D01*
X131662483Y-93513408D01*
X131602883Y-93507001D01*
X131602881Y-93507000D01*
X131602873Y-93507000D01*
X131602864Y-93507000D01*
X129507129Y-93507000D01*
X129507123Y-93507001D01*
X129447516Y-93513408D01*
X129312671Y-93563702D01*
X129312664Y-93563706D01*
X129197455Y-93649952D01*
X129197452Y-93649955D01*
X129111206Y-93765164D01*
X129111202Y-93765171D01*
X129060908Y-93900017D01*
X129054501Y-93959616D01*
X129054501Y-93959623D01*
X129054500Y-93959635D01*
X94850500Y-93959635D01*
X94850499Y-92577128D01*
X94844091Y-92517517D01*
X94809894Y-92425832D01*
X94804911Y-92356142D01*
X94838396Y-92294819D01*
X94899719Y-92261334D01*
X94926077Y-92258500D01*
X95049330Y-92258500D01*
X95049331Y-92258499D01*
X95244169Y-92219744D01*
X95427704Y-92143721D01*
X95592881Y-92033353D01*
X95733353Y-91892881D01*
X95983353Y-91642881D01*
X96093721Y-91477704D01*
X96169744Y-91294169D01*
X96208499Y-91099329D01*
X96208499Y-90900672D01*
X96169744Y-90705832D01*
X96093721Y-90522297D01*
X96093720Y-90522296D01*
X96093717Y-90522290D01*
X95983353Y-90357119D01*
X95983350Y-90357115D01*
X95842884Y-90216649D01*
X95842880Y-90216646D01*
X95677709Y-90106282D01*
X95677700Y-90106277D01*
X95494170Y-90030257D01*
X95494171Y-90030257D01*
X95494168Y-90030256D01*
X95494164Y-90030255D01*
X95494160Y-90030254D01*
X95299332Y-89991501D01*
X95299328Y-89991501D01*
X95100671Y-89991501D01*
X95100666Y-89991501D01*
X94905838Y-90030254D01*
X94905828Y-90030257D01*
X94722298Y-90106277D01*
X94722289Y-90106282D01*
X94552054Y-90220031D01*
X94550587Y-90217835D01*
X94496801Y-90240669D01*
X94482467Y-90241500D01*
X91950666Y-90241500D01*
X91755838Y-90280253D01*
X91755838Y-90280254D01*
X91755835Y-90280255D01*
X91755831Y-90280256D01*
X91679809Y-90311745D01*
X91679807Y-90311745D01*
X91572294Y-90356278D01*
X91407123Y-90466642D01*
X91407115Y-90466648D01*
X88223814Y-93649952D01*
X87607119Y-94266647D01*
X87536882Y-94336884D01*
X87466645Y-94407120D01*
X87356282Y-94572289D01*
X87356277Y-94572298D01*
X87280256Y-94755830D01*
X87280254Y-94755838D01*
X87241500Y-94950666D01*
X87241500Y-104780904D01*
X87221815Y-104847943D01*
X87205181Y-104868585D01*
X84407119Y-107666647D01*
X84336882Y-107736884D01*
X84266645Y-107807120D01*
X84156282Y-107972289D01*
X84156277Y-107972298D01*
X84080256Y-108155830D01*
X84080254Y-108155838D01*
X84041500Y-108350666D01*
X84041500Y-108544569D01*
X84021815Y-108611608D01*
X83992988Y-108642944D01*
X83912955Y-108704356D01*
X83912952Y-108704359D01*
X83704357Y-108912953D01*
X83704352Y-108912959D01*
X83524761Y-109147006D01*
X83377258Y-109402489D01*
X83377253Y-109402501D01*
X83372097Y-109414950D01*
X83328257Y-109469355D01*
X83261963Y-109491421D01*
X83257535Y-109491500D01*
X82542465Y-109491500D01*
X82475426Y-109471815D01*
X82429671Y-109419011D01*
X82427903Y-109414950D01*
X82422746Y-109402501D01*
X82422741Y-109402489D01*
X82275238Y-109147006D01*
X82095647Y-108912959D01*
X82095641Y-108912952D01*
X81887047Y-108704358D01*
X81887040Y-108704352D01*
X81652993Y-108524761D01*
X81397510Y-108377258D01*
X81397500Y-108377254D01*
X81124961Y-108264364D01*
X81124954Y-108264362D01*
X81124952Y-108264361D01*
X80839993Y-108188007D01*
X80791113Y-108181571D01*
X80547513Y-108149500D01*
X80547506Y-108149500D01*
X80252494Y-108149500D01*
X80252486Y-108149500D01*
X79974085Y-108186153D01*
X79960007Y-108188007D01*
X79675048Y-108264361D01*
X79675038Y-108264364D01*
X79402499Y-108377254D01*
X79402489Y-108377258D01*
X79147006Y-108524761D01*
X78912959Y-108704352D01*
X78912952Y-108704358D01*
X78704358Y-108912952D01*
X78704352Y-108912959D01*
X78524761Y-109147006D01*
X78377258Y-109402489D01*
X78377254Y-109402499D01*
X78264364Y-109675038D01*
X78264361Y-109675048D01*
X78208934Y-109881908D01*
X78188008Y-109960004D01*
X78188006Y-109960015D01*
X78149500Y-110252486D01*
X78149500Y-112547513D01*
X78163948Y-112657250D01*
X78188007Y-112839993D01*
X78264361Y-113124951D01*
X78264364Y-113124961D01*
X78377254Y-113397500D01*
X78377258Y-113397510D01*
X78524761Y-113652993D01*
X78704352Y-113887040D01*
X78704358Y-113887047D01*
X78912952Y-114095641D01*
X78912958Y-114095646D01*
X79135837Y-114266668D01*
X79149464Y-114277124D01*
X79190667Y-114333552D01*
X79194822Y-114403298D01*
X79160610Y-114464218D01*
X79098892Y-114496971D01*
X79073978Y-114499500D01*
X53498256Y-114499500D01*
X53431217Y-114479815D01*
X53385462Y-114427011D01*
X53375518Y-114357853D01*
X53404543Y-114294297D01*
X53438829Y-114266668D01*
X53516982Y-114223992D01*
X53584315Y-114187226D01*
X53813395Y-114015739D01*
X54015739Y-113813395D01*
X54187226Y-113584315D01*
X54324367Y-113333161D01*
X54424369Y-113065046D01*
X54485196Y-112785428D01*
X54505610Y-112500000D01*
X54485196Y-112214572D01*
X54464199Y-112118052D01*
X54424371Y-111934962D01*
X54424370Y-111934960D01*
X54424369Y-111934954D01*
X54324367Y-111666839D01*
X54305616Y-111632500D01*
X54187229Y-111415690D01*
X54187224Y-111415682D01*
X54015745Y-111186612D01*
X54015729Y-111186594D01*
X53813405Y-110984270D01*
X53813387Y-110984254D01*
X53584317Y-110812775D01*
X53584309Y-110812770D01*
X53333166Y-110675635D01*
X53333167Y-110675635D01*
X53215083Y-110631592D01*
X53065046Y-110575631D01*
X53065043Y-110575630D01*
X53065037Y-110575628D01*
X52785433Y-110514804D01*
X52500001Y-110494390D01*
X52499999Y-110494390D01*
X52214566Y-110514804D01*
X51934962Y-110575628D01*
X51666833Y-110675635D01*
X51415690Y-110812770D01*
X51415682Y-110812775D01*
X51186612Y-110984254D01*
X51186594Y-110984270D01*
X50984270Y-111186594D01*
X50984254Y-111186612D01*
X50812775Y-111415682D01*
X50812770Y-111415690D01*
X50733332Y-111561170D01*
X50683926Y-111610575D01*
X50615653Y-111625427D01*
X50550189Y-111601010D01*
X50508318Y-111545076D01*
X50500500Y-111501743D01*
X50500500Y-107700666D01*
X60191500Y-107700666D01*
X60191500Y-107899333D01*
X60230254Y-108094161D01*
X60230256Y-108094169D01*
X60306277Y-108277701D01*
X60306282Y-108277710D01*
X60416646Y-108442880D01*
X60416649Y-108442884D01*
X60557115Y-108583350D01*
X60557119Y-108583353D01*
X60722289Y-108693717D01*
X60722295Y-108693720D01*
X60722296Y-108693721D01*
X60905831Y-108769744D01*
X61100666Y-108808499D01*
X61100670Y-108808500D01*
X61100671Y-108808500D01*
X63899330Y-108808500D01*
X63899331Y-108808499D01*
X64094169Y-108769744D01*
X64277704Y-108693721D01*
X64442881Y-108583353D01*
X64583353Y-108442881D01*
X64641912Y-108384322D01*
X64641924Y-108384308D01*
X67583354Y-105442881D01*
X67693722Y-105277703D01*
X67738254Y-105170191D01*
X67769744Y-105094169D01*
X67808500Y-104899329D01*
X67808500Y-102900671D01*
X67769744Y-102705831D01*
X67693721Y-102522296D01*
X67693720Y-102522295D01*
X67693717Y-102522289D01*
X67583353Y-102357119D01*
X67583350Y-102357115D01*
X67442884Y-102216649D01*
X67442880Y-102216646D01*
X67277710Y-102106282D01*
X67277701Y-102106277D01*
X67094169Y-102030256D01*
X67094161Y-102030254D01*
X66899333Y-101991500D01*
X66899329Y-101991500D01*
X66700671Y-101991500D01*
X66700666Y-101991500D01*
X66505838Y-102030254D01*
X66505830Y-102030256D01*
X66322298Y-102106277D01*
X66322289Y-102106282D01*
X66157119Y-102216646D01*
X66157115Y-102216649D01*
X66016649Y-102357115D01*
X66016646Y-102357119D01*
X65906282Y-102522289D01*
X65906277Y-102522298D01*
X65830256Y-102705830D01*
X65830254Y-102705838D01*
X65791500Y-102900666D01*
X65791500Y-104330903D01*
X65771815Y-104397942D01*
X65755181Y-104418584D01*
X63418585Y-106755181D01*
X63357262Y-106788666D01*
X63330904Y-106791500D01*
X61100666Y-106791500D01*
X60905838Y-106830254D01*
X60905830Y-106830256D01*
X60722298Y-106906277D01*
X60722289Y-106906282D01*
X60557119Y-107016646D01*
X60557115Y-107016649D01*
X60416649Y-107157115D01*
X60416646Y-107157119D01*
X60306282Y-107322289D01*
X60306277Y-107322298D01*
X60230256Y-107505830D01*
X60230254Y-107505838D01*
X60191500Y-107700666D01*
X50500500Y-107700666D01*
X50500500Y-97100666D01*
X52491500Y-97100666D01*
X52491500Y-97299333D01*
X52530254Y-97494161D01*
X52530256Y-97494169D01*
X52606277Y-97677701D01*
X52606282Y-97677710D01*
X52716646Y-97842880D01*
X52716649Y-97842884D01*
X52857115Y-97983350D01*
X52857119Y-97983353D01*
X53022289Y-98093717D01*
X53022295Y-98093720D01*
X53022296Y-98093721D01*
X53205831Y-98169744D01*
X53400666Y-98208499D01*
X53400670Y-98208500D01*
X53400671Y-98208500D01*
X61400671Y-98208500D01*
X73330904Y-98208500D01*
X73397943Y-98228185D01*
X73418585Y-98244819D01*
X74657115Y-99483350D01*
X74657119Y-99483353D01*
X74822289Y-99593717D01*
X74822295Y-99593720D01*
X74822296Y-99593721D01*
X75005831Y-99669744D01*
X75156686Y-99699750D01*
X75200666Y-99708498D01*
X75200670Y-99708499D01*
X75200671Y-99708499D01*
X75399329Y-99708499D01*
X75399330Y-99708498D01*
X75594168Y-99669744D01*
X75777703Y-99593721D01*
X75942881Y-99483353D01*
X76083353Y-99342881D01*
X76193721Y-99177703D01*
X76269744Y-98994168D01*
X76308499Y-98799328D01*
X76308499Y-98600671D01*
X76269744Y-98405831D01*
X76193721Y-98222296D01*
X76193720Y-98222295D01*
X76193717Y-98222289D01*
X76083353Y-98057119D01*
X76083350Y-98057115D01*
X74442884Y-96416649D01*
X74442880Y-96416646D01*
X74277710Y-96306282D01*
X74277701Y-96306277D01*
X74190230Y-96270046D01*
X74094169Y-96230256D01*
X74094161Y-96230254D01*
X73899333Y-96191500D01*
X73899329Y-96191500D01*
X62632500Y-96191500D01*
X62565461Y-96171815D01*
X62519706Y-96119011D01*
X62508500Y-96067500D01*
X62508500Y-88069096D01*
X62528185Y-88002057D01*
X62544819Y-87981415D01*
X62626235Y-87899999D01*
X64079341Y-87899999D01*
X64079341Y-87900000D01*
X64099936Y-88135403D01*
X64099938Y-88135413D01*
X64161094Y-88363655D01*
X64161096Y-88363659D01*
X64161097Y-88363663D01*
X64235067Y-88522292D01*
X64260965Y-88577830D01*
X64260967Y-88577834D01*
X64350592Y-88705830D01*
X64396505Y-88771401D01*
X64563599Y-88938495D01*
X64660384Y-89006265D01*
X64757165Y-89074032D01*
X64757167Y-89074033D01*
X64757170Y-89074035D01*
X64971337Y-89173903D01*
X65199592Y-89235063D01*
X65376034Y-89250500D01*
X65434999Y-89255659D01*
X65435000Y-89255659D01*
X65435001Y-89255659D01*
X65493966Y-89250500D01*
X65670408Y-89235063D01*
X65898663Y-89173903D01*
X66112830Y-89074035D01*
X66306401Y-88938495D01*
X66428329Y-88816566D01*
X66489648Y-88783084D01*
X66559340Y-88788068D01*
X66615274Y-88829939D01*
X66632189Y-88860917D01*
X66681202Y-88992328D01*
X66681206Y-88992335D01*
X66767452Y-89107544D01*
X66767455Y-89107547D01*
X66882664Y-89193793D01*
X66882671Y-89193797D01*
X67017517Y-89244091D01*
X67017516Y-89244091D01*
X67024444Y-89244835D01*
X67077127Y-89250500D01*
X68872872Y-89250499D01*
X68932483Y-89244091D01*
X69067331Y-89193796D01*
X69182546Y-89107546D01*
X69268796Y-88992331D01*
X69319091Y-88857483D01*
X69325500Y-88797873D01*
X69325499Y-88027094D01*
X69345183Y-87960056D01*
X69361813Y-87939419D01*
X70956415Y-86344819D01*
X71017738Y-86311334D01*
X71044096Y-86308500D01*
X83283963Y-86308500D01*
X83351002Y-86328185D01*
X83396757Y-86380989D01*
X83406701Y-86450147D01*
X83387065Y-86501391D01*
X83306282Y-86622289D01*
X83306277Y-86622298D01*
X83230256Y-86805830D01*
X83230254Y-86805838D01*
X83191500Y-87000666D01*
X83191500Y-87199333D01*
X83230254Y-87394161D01*
X83230256Y-87394169D01*
X83306277Y-87577701D01*
X83306282Y-87577710D01*
X83416646Y-87742880D01*
X83416649Y-87742884D01*
X83557115Y-87883350D01*
X83557119Y-87883353D01*
X83722289Y-87993717D01*
X83722295Y-87993720D01*
X83722296Y-87993721D01*
X83905831Y-88069744D01*
X84100666Y-88108499D01*
X84100670Y-88108500D01*
X84100671Y-88108500D01*
X93930904Y-88108500D01*
X93997943Y-88128185D01*
X94018585Y-88144819D01*
X95657115Y-89783351D01*
X95657119Y-89783354D01*
X95822292Y-89893720D01*
X95822294Y-89893720D01*
X95822296Y-89893722D01*
X96005832Y-89969744D01*
X96005834Y-89969744D01*
X96005839Y-89969746D01*
X96200666Y-90008499D01*
X96200669Y-90008500D01*
X96200671Y-90008500D01*
X96399330Y-90008500D01*
X96399331Y-90008499D01*
X96484789Y-89991501D01*
X96594161Y-89969746D01*
X96594164Y-89969744D01*
X96594169Y-89969744D01*
X96777704Y-89893722D01*
X96942881Y-89783354D01*
X97083354Y-89642881D01*
X97193722Y-89477704D01*
X97269744Y-89294169D01*
X97278431Y-89250500D01*
X97303931Y-89122298D01*
X97308500Y-89099329D01*
X97308500Y-88900671D01*
X97308500Y-88900668D01*
X97308499Y-88900666D01*
X97269746Y-88705839D01*
X97269743Y-88705830D01*
X97216726Y-88577834D01*
X97193722Y-88522296D01*
X97193720Y-88522294D01*
X97193720Y-88522292D01*
X97083354Y-88357119D01*
X97083351Y-88357115D01*
X95246416Y-86520181D01*
X95212931Y-86458858D01*
X95217915Y-86389166D01*
X95259787Y-86333233D01*
X95325251Y-86308816D01*
X95334097Y-86308500D01*
X96900671Y-86308500D01*
X97700671Y-86308500D01*
X97899329Y-86308500D01*
X107230904Y-86308500D01*
X107297943Y-86328185D01*
X107318585Y-86344819D01*
X111357115Y-90383350D01*
X111357119Y-90383353D01*
X111522289Y-90493717D01*
X111522295Y-90493720D01*
X111522296Y-90493721D01*
X111705831Y-90569744D01*
X111900666Y-90608499D01*
X111900670Y-90608500D01*
X111900671Y-90608500D01*
X112099329Y-90608500D01*
X112099330Y-90608499D01*
X112294168Y-90569744D01*
X112477703Y-90493721D01*
X112642881Y-90383353D01*
X112783353Y-90242881D01*
X112893721Y-90077703D01*
X112969744Y-89894168D01*
X113008500Y-89699328D01*
X113008500Y-89500671D01*
X112969744Y-89305831D01*
X112893721Y-89122296D01*
X112893720Y-89122295D01*
X112893717Y-89122289D01*
X112783353Y-88957119D01*
X112783350Y-88957115D01*
X108342884Y-84516649D01*
X108342876Y-84516643D01*
X108177708Y-84406282D01*
X108177704Y-84406279D01*
X108177698Y-84406276D01*
X108177692Y-84406273D01*
X108175976Y-84405562D01*
X108175973Y-84405562D01*
X107994169Y-84330256D01*
X107994161Y-84330254D01*
X107799333Y-84291500D01*
X107799329Y-84291500D01*
X100534096Y-84291500D01*
X100467057Y-84271815D01*
X100421302Y-84219011D01*
X100411358Y-84149853D01*
X100440383Y-84086297D01*
X100446415Y-84079819D01*
X104481415Y-80044819D01*
X104542738Y-80011334D01*
X104569096Y-80008500D01*
X105599330Y-80008500D01*
X105599331Y-80008499D01*
X105794169Y-79969744D01*
X105977704Y-79893721D01*
X106142881Y-79783353D01*
X106283353Y-79642881D01*
X106393721Y-79477704D01*
X106469744Y-79294169D01*
X106508500Y-79099329D01*
X106508500Y-78900671D01*
X106469744Y-78705831D01*
X106459025Y-78679952D01*
X106451556Y-78610483D01*
X106482832Y-78548004D01*
X106542921Y-78512352D01*
X106573586Y-78508500D01*
X122930904Y-78508500D01*
X122997943Y-78528185D01*
X123018585Y-78544819D01*
X126116647Y-81642881D01*
X126205357Y-81731591D01*
X126257120Y-81783354D01*
X126422289Y-81893717D01*
X126422295Y-81893720D01*
X126422296Y-81893721D01*
X126605831Y-81969744D01*
X126766591Y-82001721D01*
X126800666Y-82008499D01*
X126800670Y-82008500D01*
X126800671Y-82008500D01*
X130425182Y-82008500D01*
X130492221Y-82028185D01*
X130498067Y-82032182D01*
X130660218Y-82149991D01*
X130702884Y-82205321D01*
X130708863Y-82274934D01*
X130676258Y-82336729D01*
X130660218Y-82350627D01*
X130495540Y-82470272D01*
X130495535Y-82470276D01*
X130345276Y-82620535D01*
X130345272Y-82620540D01*
X130220379Y-82792442D01*
X130123904Y-82981782D01*
X130058242Y-83183870D01*
X130058242Y-83183873D01*
X130047769Y-83250000D01*
X131095854Y-83250000D01*
X131057370Y-83316657D01*
X131025000Y-83437465D01*
X131025000Y-83562535D01*
X131057370Y-83683343D01*
X131095854Y-83750000D01*
X130047769Y-83750000D01*
X130058242Y-83816126D01*
X130058242Y-83816129D01*
X130123904Y-84018217D01*
X130220379Y-84207557D01*
X130345272Y-84379459D01*
X130345276Y-84379464D01*
X130495535Y-84529723D01*
X130495540Y-84529727D01*
X130667442Y-84654620D01*
X130856782Y-84751095D01*
X131058872Y-84816757D01*
X131250000Y-84847029D01*
X131250000Y-83904145D01*
X131316657Y-83942630D01*
X131437465Y-83975000D01*
X131562535Y-83975000D01*
X131683343Y-83942630D01*
X131750000Y-83904145D01*
X131750000Y-84847028D01*
X131941127Y-84816757D01*
X132143217Y-84751095D01*
X132332557Y-84654620D01*
X132504459Y-84529727D01*
X132504464Y-84529723D01*
X132654723Y-84379464D01*
X132654727Y-84379459D01*
X132779620Y-84207557D01*
X132876095Y-84018217D01*
X132941757Y-83816129D01*
X132941757Y-83816126D01*
X132952231Y-83750000D01*
X131904146Y-83750000D01*
X131942630Y-83683343D01*
X131975000Y-83562535D01*
X131975000Y-83437465D01*
X131942630Y-83316657D01*
X131904146Y-83250000D01*
X132952231Y-83250000D01*
X132941757Y-83183873D01*
X132941757Y-83183870D01*
X132876095Y-82981782D01*
X132779620Y-82792442D01*
X132654727Y-82620540D01*
X132654723Y-82620535D01*
X132504464Y-82470276D01*
X132504459Y-82470272D01*
X132339781Y-82350627D01*
X132297115Y-82295297D01*
X132291136Y-82225684D01*
X132323741Y-82163889D01*
X132339776Y-82149994D01*
X132504792Y-82030104D01*
X132655104Y-81879792D01*
X132655106Y-81879788D01*
X132655109Y-81879786D01*
X132780048Y-81707820D01*
X132780047Y-81707820D01*
X132780051Y-81707816D01*
X132876557Y-81518412D01*
X132942246Y-81316243D01*
X132975500Y-81106287D01*
X132975500Y-80893713D01*
X132942246Y-80683757D01*
X132876557Y-80481588D01*
X132780051Y-80292184D01*
X132780049Y-80292181D01*
X132780048Y-80292179D01*
X132655109Y-80120213D01*
X132504792Y-79969896D01*
X132476749Y-79949522D01*
X132340204Y-79850316D01*
X132297540Y-79794989D01*
X132291561Y-79725376D01*
X132324166Y-79663580D01*
X132340199Y-79649686D01*
X132504792Y-79530104D01*
X132655104Y-79379792D01*
X132655106Y-79379788D01*
X132655109Y-79379786D01*
X132780048Y-79207820D01*
X132780047Y-79207820D01*
X132780051Y-79207816D01*
X132876557Y-79018412D01*
X132942246Y-78816243D01*
X132975500Y-78606287D01*
X132975500Y-78393713D01*
X132942246Y-78183757D01*
X132876557Y-77981588D01*
X132780051Y-77792184D01*
X132780049Y-77792181D01*
X132780048Y-77792179D01*
X132655109Y-77620213D01*
X132516294Y-77481398D01*
X132482809Y-77420075D01*
X132487793Y-77350383D01*
X132529665Y-77294450D01*
X132538879Y-77288178D01*
X132544331Y-77284814D01*
X132544334Y-77284814D01*
X132693656Y-77192712D01*
X132817712Y-77068656D01*
X132909814Y-76919334D01*
X132964999Y-76752797D01*
X132975500Y-76650009D01*
X132975499Y-75349992D01*
X132972212Y-75317819D01*
X132964999Y-75247203D01*
X132964998Y-75247200D01*
X132954877Y-75216657D01*
X132909814Y-75080666D01*
X132817712Y-74931344D01*
X132693656Y-74807288D01*
X132544334Y-74715186D01*
X132377797Y-74660001D01*
X132377795Y-74660000D01*
X132275010Y-74649500D01*
X130724998Y-74649500D01*
X130724981Y-74649501D01*
X130622203Y-74660000D01*
X130622200Y-74660001D01*
X130455668Y-74715185D01*
X130455663Y-74715187D01*
X130306342Y-74807289D01*
X130182289Y-74931342D01*
X130090187Y-75080663D01*
X130090185Y-75080668D01*
X130070058Y-75141408D01*
X130047301Y-75210086D01*
X130035001Y-75247204D01*
X130035000Y-75247205D01*
X130033581Y-75261102D01*
X130007185Y-75325794D01*
X129950004Y-75365946D01*
X129910223Y-75372500D01*
X127353334Y-75372500D01*
X127286295Y-75352815D01*
X127265653Y-75336181D01*
X125642064Y-73712591D01*
X125642060Y-73712588D01*
X125539292Y-73643920D01*
X125539279Y-73643913D01*
X125505838Y-73630062D01*
X125425088Y-73596614D01*
X125425080Y-73596612D01*
X125303860Y-73572500D01*
X125303856Y-73572500D01*
X91311281Y-73572500D01*
X91244242Y-73552815D01*
X91223600Y-73536181D01*
X80773011Y-63085591D01*
X80773010Y-63085590D01*
X80750782Y-63070738D01*
X80749953Y-63070184D01*
X80670233Y-63016917D01*
X80670232Y-63016916D01*
X80670230Y-63016915D01*
X80636785Y-63003062D01*
X80556035Y-62969614D01*
X80556027Y-62969612D01*
X80434807Y-62945500D01*
X80434803Y-62945500D01*
X77341672Y-62945500D01*
X77275700Y-62926494D01*
X77149523Y-62847211D01*
X76979254Y-62787631D01*
X76979249Y-62787630D01*
X76800004Y-62767435D01*
X76799996Y-62767435D01*
X76620750Y-62787630D01*
X76620745Y-62787631D01*
X76450476Y-62847211D01*
X76297737Y-62943184D01*
X76170184Y-63070737D01*
X76074211Y-63223476D01*
X76014631Y-63393745D01*
X76014630Y-63393750D01*
X75994435Y-63572996D01*
X75994435Y-63573003D01*
X76014630Y-63752249D01*
X76014631Y-63752254D01*
X76074211Y-63922523D01*
X76119230Y-63994169D01*
X76170184Y-64075262D01*
X76297738Y-64202816D01*
X76362496Y-64243506D01*
X76408787Y-64295841D01*
X76419435Y-64364894D01*
X76391060Y-64428743D01*
X76332670Y-64467115D01*
X76296524Y-64472500D01*
X73438197Y-64472500D01*
X73336732Y-64492681D01*
X73306962Y-64493935D01*
X73306962Y-64494435D01*
X73299996Y-64494435D01*
X73120750Y-64514630D01*
X73120745Y-64514631D01*
X72950476Y-64574211D01*
X72797737Y-64670184D01*
X72670184Y-64797737D01*
X72574211Y-64950476D01*
X72514631Y-65120745D01*
X72514630Y-65120750D01*
X72494435Y-65299996D01*
X72494435Y-65300003D01*
X72514630Y-65479249D01*
X72514631Y-65479254D01*
X72574211Y-65649523D01*
X72659569Y-65785368D01*
X72670184Y-65802262D01*
X72797738Y-65929816D01*
X72950478Y-66025789D01*
X73120745Y-66085368D01*
X73120750Y-66085369D01*
X73299996Y-66105565D01*
X73300000Y-66105565D01*
X73300004Y-66105565D01*
X73479249Y-66085369D01*
X73479252Y-66085368D01*
X73479255Y-66085368D01*
X73649522Y-66025789D01*
X73802262Y-65929816D01*
X73929816Y-65802262D01*
X73940331Y-65785526D01*
X73992663Y-65739238D01*
X74045324Y-65727500D01*
X74952790Y-65727500D01*
X75019829Y-65747185D01*
X75065584Y-65799989D01*
X75075528Y-65869147D01*
X75057784Y-65917472D01*
X74974211Y-66050476D01*
X74914631Y-66220745D01*
X74914630Y-66220750D01*
X74894435Y-66399996D01*
X74894435Y-66400003D01*
X74914630Y-66579249D01*
X74914631Y-66579254D01*
X74974211Y-66749523D01*
X75023208Y-66827500D01*
X75070184Y-66902262D01*
X75197738Y-67029816D01*
X75350478Y-67125789D01*
X75402285Y-67143917D01*
X75520745Y-67185368D01*
X75520750Y-67185369D01*
X75694666Y-67204964D01*
X75759080Y-67232030D01*
X75798635Y-67289625D01*
X75804003Y-67342066D01*
X75794435Y-67426994D01*
X75794435Y-67427003D01*
X75814630Y-67606249D01*
X75814631Y-67606254D01*
X75874211Y-67776523D01*
X75950376Y-67897738D01*
X75970184Y-67929262D01*
X76097738Y-68056816D01*
X76188080Y-68113582D01*
X76245278Y-68149522D01*
X76250478Y-68152789D01*
X76420745Y-68212368D01*
X76464635Y-68217313D01*
X76529048Y-68244378D01*
X76538433Y-68252852D01*
X77085589Y-68800008D01*
X77135102Y-68849521D01*
X77172994Y-68887413D01*
X77172996Y-68887414D01*
X77275756Y-68956076D01*
X77275758Y-68956077D01*
X77275767Y-68956083D01*
X77300772Y-68966440D01*
X77323071Y-68975677D01*
X77365254Y-68993149D01*
X77389966Y-69003386D01*
X77511192Y-69027499D01*
X77511196Y-69027500D01*
X77511197Y-69027500D01*
X77634803Y-69027500D01*
X78204614Y-69027500D01*
X78271653Y-69047185D01*
X78292295Y-69063819D01*
X88882484Y-79654008D01*
X88933487Y-79705011D01*
X88969889Y-79741413D01*
X88969891Y-79741414D01*
X89050072Y-79794989D01*
X89072662Y-79810083D01*
X89106110Y-79823937D01*
X89156836Y-79844949D01*
X89192489Y-79859718D01*
X89191840Y-79861283D01*
X89243498Y-79895139D01*
X89271953Y-79958952D01*
X89261391Y-80028019D01*
X89215165Y-80080411D01*
X89149062Y-80099500D01*
X80477096Y-80099500D01*
X80410057Y-80079815D01*
X80389415Y-80063181D01*
X80142884Y-79816649D01*
X80142880Y-79816646D01*
X79977710Y-79706282D01*
X79977701Y-79706277D01*
X79794168Y-79630256D01*
X79794160Y-79630254D01*
X79599332Y-79591500D01*
X79599329Y-79591500D01*
X79400671Y-79591500D01*
X79400668Y-79591500D01*
X79205839Y-79630254D01*
X79205831Y-79630256D01*
X79022298Y-79706277D01*
X79022289Y-79706282D01*
X78857119Y-79816646D01*
X78857115Y-79816649D01*
X78716649Y-79957115D01*
X78716646Y-79957119D01*
X78606282Y-80122289D01*
X78606277Y-80122298D01*
X78530256Y-80305831D01*
X78530254Y-80305839D01*
X78491500Y-80500666D01*
X78491500Y-80699333D01*
X78530254Y-80894160D01*
X78530256Y-80894168D01*
X78606277Y-81077701D01*
X78606282Y-81077710D01*
X78716646Y-81242880D01*
X78716649Y-81242884D01*
X79224647Y-81750881D01*
X79325013Y-81851247D01*
X79365120Y-81891354D01*
X79530289Y-82001717D01*
X79530295Y-82001720D01*
X79530296Y-82001721D01*
X79713831Y-82077744D01*
X79908666Y-82116499D01*
X79908670Y-82116500D01*
X79908671Y-82116500D01*
X99257904Y-82116500D01*
X99324943Y-82136185D01*
X99370698Y-82188989D01*
X99380642Y-82258147D01*
X99351617Y-82321703D01*
X99345585Y-82328181D01*
X97418585Y-84255181D01*
X97357262Y-84288666D01*
X97330904Y-84291500D01*
X70475666Y-84291500D01*
X70280838Y-84330254D01*
X70280830Y-84330256D01*
X70097298Y-84406277D01*
X70097289Y-84406282D01*
X69932119Y-84516646D01*
X69932115Y-84516649D01*
X67935583Y-86513181D01*
X67874260Y-86546666D01*
X67847902Y-86549500D01*
X67077129Y-86549500D01*
X67077123Y-86549501D01*
X67017516Y-86555908D01*
X66882671Y-86606202D01*
X66882664Y-86606206D01*
X66767455Y-86692452D01*
X66767452Y-86692455D01*
X66681206Y-86807664D01*
X66681203Y-86807669D01*
X66632189Y-86939083D01*
X66590317Y-86995016D01*
X66524853Y-87019433D01*
X66456580Y-87004581D01*
X66428326Y-86983430D01*
X66306402Y-86861506D01*
X66306395Y-86861501D01*
X66112834Y-86725967D01*
X66112830Y-86725965D01*
X66112828Y-86725964D01*
X65898663Y-86626097D01*
X65898659Y-86626096D01*
X65898655Y-86626094D01*
X65670413Y-86564938D01*
X65670403Y-86564936D01*
X65435001Y-86544341D01*
X65434999Y-86544341D01*
X65199596Y-86564936D01*
X65199586Y-86564938D01*
X64971344Y-86626094D01*
X64971335Y-86626098D01*
X64757171Y-86725964D01*
X64757169Y-86725965D01*
X64563597Y-86861505D01*
X64396505Y-87028597D01*
X64260965Y-87222169D01*
X64260964Y-87222171D01*
X64161098Y-87436335D01*
X64161094Y-87436344D01*
X64099938Y-87664586D01*
X64099936Y-87664596D01*
X64079341Y-87899999D01*
X62626235Y-87899999D01*
X65881415Y-84644819D01*
X65942738Y-84611334D01*
X65969096Y-84608500D01*
X67999330Y-84608500D01*
X67999331Y-84608499D01*
X68194169Y-84569744D01*
X68377704Y-84493721D01*
X68542881Y-84383353D01*
X68683353Y-84242881D01*
X68793721Y-84077704D01*
X68869744Y-83894169D01*
X68908500Y-83699329D01*
X68908500Y-83500671D01*
X68869744Y-83305831D01*
X68793721Y-83122296D01*
X68793720Y-83122295D01*
X68793717Y-83122289D01*
X68683353Y-82957119D01*
X68683350Y-82957115D01*
X68542884Y-82816649D01*
X68542880Y-82816646D01*
X68377710Y-82706282D01*
X68377701Y-82706277D01*
X68194169Y-82630256D01*
X68194161Y-82630254D01*
X67999333Y-82591500D01*
X67999329Y-82591500D01*
X65599329Y-82591500D01*
X65400671Y-82591500D01*
X65400666Y-82591500D01*
X65205838Y-82630254D01*
X65205830Y-82630256D01*
X65022298Y-82706277D01*
X65022289Y-82706282D01*
X64857119Y-82816646D01*
X64857115Y-82816649D01*
X61365266Y-86308500D01*
X60857119Y-86816647D01*
X60812265Y-86861501D01*
X60716645Y-86957120D01*
X60606282Y-87122289D01*
X60606277Y-87122298D01*
X60530256Y-87305830D01*
X60530254Y-87305838D01*
X60491500Y-87500666D01*
X60491500Y-96067500D01*
X60471815Y-96134539D01*
X60419011Y-96180294D01*
X60367500Y-96191500D01*
X53400666Y-96191500D01*
X53205838Y-96230254D01*
X53205830Y-96230256D01*
X53022298Y-96306277D01*
X53022289Y-96306282D01*
X52857119Y-96416646D01*
X52857115Y-96416649D01*
X52716649Y-96557115D01*
X52716646Y-96557119D01*
X52606282Y-96722289D01*
X52606277Y-96722298D01*
X52530256Y-96905830D01*
X52530254Y-96905838D01*
X52491500Y-97100666D01*
X50500500Y-97100666D01*
X50500500Y-81250000D01*
X51520898Y-81250000D01*
X53451518Y-81250000D01*
X53440889Y-81268409D01*
X53400000Y-81421009D01*
X53400000Y-81578991D01*
X53440889Y-81731591D01*
X53451518Y-81750000D01*
X51520898Y-81750000D01*
X51536934Y-81851247D01*
X51609897Y-82075802D01*
X51717085Y-82286171D01*
X51855866Y-82477186D01*
X52022813Y-82644133D01*
X52213828Y-82782914D01*
X52424197Y-82890102D01*
X52648752Y-82963065D01*
X52648751Y-82963065D01*
X52881948Y-83000000D01*
X53750000Y-83000000D01*
X53750000Y-82048482D01*
X53768409Y-82059111D01*
X53921009Y-82100000D01*
X54078991Y-82100000D01*
X54231591Y-82059111D01*
X54250000Y-82048482D01*
X54250000Y-83000000D01*
X55118052Y-83000000D01*
X55351247Y-82963065D01*
X55575802Y-82890102D01*
X55786171Y-82782914D01*
X55977186Y-82644133D01*
X56144133Y-82477186D01*
X56282914Y-82286171D01*
X56390102Y-82075802D01*
X56463065Y-81851247D01*
X56479102Y-81750000D01*
X54548482Y-81750000D01*
X54559111Y-81731591D01*
X54600000Y-81578991D01*
X54600000Y-81421009D01*
X54559111Y-81268409D01*
X54548482Y-81250000D01*
X56479102Y-81250000D01*
X56463065Y-81148752D01*
X56390102Y-80924197D01*
X56282914Y-80713828D01*
X56144133Y-80522813D01*
X55977186Y-80355866D01*
X55786171Y-80217085D01*
X55575802Y-80109897D01*
X55351247Y-80036934D01*
X55351248Y-80036934D01*
X55118052Y-80000000D01*
X54250000Y-80000000D01*
X54250000Y-80951517D01*
X54231591Y-80940889D01*
X54078991Y-80900000D01*
X53921009Y-80900000D01*
X53768409Y-80940889D01*
X53750000Y-80951517D01*
X53750000Y-80000000D01*
X52881948Y-80000000D01*
X52648752Y-80036934D01*
X52424197Y-80109897D01*
X52213828Y-80217085D01*
X52022813Y-80355866D01*
X51855866Y-80522813D01*
X51717085Y-80713828D01*
X51609897Y-80924197D01*
X51536934Y-81148752D01*
X51520898Y-81250000D01*
X50500500Y-81250000D01*
X50500500Y-76381902D01*
X51499500Y-76381902D01*
X51499500Y-76618097D01*
X51536446Y-76851368D01*
X51609433Y-77075996D01*
X51715832Y-77284814D01*
X51716657Y-77286433D01*
X51855483Y-77477510D01*
X52022490Y-77644517D01*
X52213567Y-77783343D01*
X52312991Y-77834002D01*
X52424003Y-77890566D01*
X52424005Y-77890566D01*
X52424008Y-77890568D01*
X52544412Y-77929689D01*
X52648631Y-77963553D01*
X52881903Y-78000500D01*
X52881908Y-78000500D01*
X55118097Y-78000500D01*
X55351368Y-77963553D01*
X55575992Y-77890568D01*
X55786433Y-77783343D01*
X55977510Y-77644517D01*
X56144517Y-77477510D01*
X56283343Y-77286433D01*
X56390568Y-77075992D01*
X56463553Y-76851368D01*
X56479165Y-76752797D01*
X56500500Y-76618097D01*
X56500500Y-76381902D01*
X56463553Y-76148631D01*
X56390566Y-75924003D01*
X56283342Y-75713566D01*
X56144517Y-75522490D01*
X55977510Y-75355483D01*
X55786433Y-75216657D01*
X55773523Y-75210079D01*
X55575996Y-75109433D01*
X55351368Y-75036446D01*
X55118097Y-74999500D01*
X55118092Y-74999500D01*
X52881908Y-74999500D01*
X52881903Y-74999500D01*
X52648631Y-75036446D01*
X52424003Y-75109433D01*
X52213566Y-75216657D01*
X52104550Y-75295862D01*
X52022490Y-75355483D01*
X52022488Y-75355485D01*
X52022487Y-75355485D01*
X51855485Y-75522487D01*
X51855485Y-75522488D01*
X51855483Y-75522490D01*
X51795862Y-75604550D01*
X51716657Y-75713566D01*
X51609433Y-75924003D01*
X51536446Y-76148631D01*
X51499500Y-76381902D01*
X50500500Y-76381902D01*
X50500500Y-70570000D01*
X51555138Y-70570000D01*
X52358012Y-70570000D01*
X52340795Y-70579940D01*
X52284940Y-70635795D01*
X52245444Y-70704204D01*
X52225000Y-70780504D01*
X52225000Y-70859496D01*
X52245444Y-70935796D01*
X52284940Y-71004205D01*
X52340795Y-71060060D01*
X52358012Y-71070000D01*
X51555138Y-71070000D01*
X51563430Y-71111690D01*
X51563430Y-71111692D01*
X51638807Y-71293671D01*
X51638814Y-71293684D01*
X51748248Y-71457462D01*
X51748251Y-71457466D01*
X51887533Y-71596748D01*
X51887537Y-71596751D01*
X52051315Y-71706185D01*
X52051328Y-71706192D01*
X52233306Y-71781569D01*
X52233318Y-71781572D01*
X52426504Y-71819999D01*
X52426508Y-71820000D01*
X52675000Y-71820000D01*
X52675000Y-71120000D01*
X53175000Y-71120000D01*
X53175000Y-71820000D01*
X53423492Y-71820000D01*
X53423495Y-71819999D01*
X53616681Y-71781572D01*
X53616693Y-71781569D01*
X53798671Y-71706192D01*
X53798684Y-71706185D01*
X53962462Y-71596751D01*
X53962466Y-71596748D01*
X54101748Y-71457466D01*
X54101751Y-71457462D01*
X54211185Y-71293684D01*
X54211192Y-71293671D01*
X54286569Y-71111692D01*
X54286569Y-71111690D01*
X54294862Y-71070000D01*
X53491988Y-71070000D01*
X53509205Y-71060060D01*
X53565060Y-71004205D01*
X53604556Y-70935796D01*
X53625000Y-70859496D01*
X53625000Y-70780504D01*
X53604556Y-70704204D01*
X53565060Y-70635795D01*
X53509205Y-70579940D01*
X53491988Y-70570000D01*
X54294862Y-70570000D01*
X55585138Y-70570000D01*
X56388012Y-70570000D01*
X56370795Y-70579940D01*
X56314940Y-70635795D01*
X56275444Y-70704204D01*
X56255000Y-70780504D01*
X56255000Y-70859496D01*
X56275444Y-70935796D01*
X56314940Y-71004205D01*
X56370795Y-71060060D01*
X56388012Y-71070000D01*
X55585138Y-71070000D01*
X55593430Y-71111690D01*
X55593430Y-71111692D01*
X55668807Y-71293671D01*
X55668814Y-71293684D01*
X55778248Y-71457462D01*
X55778251Y-71457466D01*
X55917533Y-71596748D01*
X55917537Y-71596751D01*
X56081315Y-71706185D01*
X56081328Y-71706192D01*
X56263306Y-71781569D01*
X56263318Y-71781572D01*
X56456504Y-71819999D01*
X56456508Y-71820000D01*
X56855000Y-71820000D01*
X56855000Y-71120000D01*
X57355000Y-71120000D01*
X57355000Y-71820000D01*
X57753492Y-71820000D01*
X57753495Y-71819999D01*
X57946681Y-71781572D01*
X57946693Y-71781569D01*
X58128671Y-71706192D01*
X58128684Y-71706185D01*
X58292462Y-71596751D01*
X58292466Y-71596748D01*
X58431748Y-71457466D01*
X58431751Y-71457462D01*
X58541185Y-71293684D01*
X58541192Y-71293671D01*
X58616569Y-71111692D01*
X58616569Y-71111690D01*
X58624862Y-71070000D01*
X57821988Y-71070000D01*
X57839205Y-71060060D01*
X57895060Y-71004205D01*
X57934556Y-70935796D01*
X57955000Y-70859496D01*
X57955000Y-70780504D01*
X57934556Y-70704204D01*
X57895060Y-70635795D01*
X57839205Y-70579940D01*
X57821988Y-70570000D01*
X58624862Y-70570000D01*
X58616569Y-70528309D01*
X58616569Y-70528307D01*
X58541192Y-70346328D01*
X58541185Y-70346315D01*
X58431751Y-70182537D01*
X58431748Y-70182533D01*
X58292466Y-70043251D01*
X58292462Y-70043248D01*
X58128684Y-69933814D01*
X58128671Y-69933807D01*
X57946693Y-69858430D01*
X57946681Y-69858427D01*
X57753495Y-69820000D01*
X57236045Y-69820000D01*
X57169006Y-69800315D01*
X57123251Y-69747511D01*
X57113307Y-69678353D01*
X57128658Y-69634000D01*
X57141279Y-69612138D01*
X57141281Y-69612135D01*
X57180500Y-69465766D01*
X57180500Y-69314234D01*
X57141281Y-69167865D01*
X57065515Y-69036635D01*
X56958365Y-68929485D01*
X56885496Y-68887414D01*
X56827136Y-68853719D01*
X56705569Y-68821146D01*
X56680766Y-68814500D01*
X56529234Y-68814500D01*
X56382863Y-68853719D01*
X56251635Y-68929485D01*
X56251632Y-68929487D01*
X56144487Y-69036632D01*
X56144485Y-69036635D01*
X56068719Y-69167863D01*
X56029500Y-69314234D01*
X56029500Y-69465765D01*
X56068719Y-69612136D01*
X56106950Y-69678353D01*
X56144485Y-69743365D01*
X56144486Y-69743366D01*
X56148549Y-69750403D01*
X56146346Y-69751674D01*
X56166959Y-69804983D01*
X56152923Y-69873428D01*
X56104112Y-69923420D01*
X56090845Y-69929866D01*
X56081324Y-69933809D01*
X56081315Y-69933814D01*
X55917537Y-70043248D01*
X55917533Y-70043251D01*
X55778251Y-70182533D01*
X55778248Y-70182537D01*
X55668814Y-70346315D01*
X55668807Y-70346328D01*
X55593430Y-70528307D01*
X55593430Y-70528309D01*
X55585138Y-70570000D01*
X54294862Y-70570000D01*
X54286569Y-70528309D01*
X54286569Y-70528307D01*
X54211192Y-70346328D01*
X54211185Y-70346315D01*
X54101751Y-70182537D01*
X54101748Y-70182533D01*
X53962466Y-70043251D01*
X53962462Y-70043248D01*
X53798684Y-69933814D01*
X53798671Y-69933807D01*
X53616693Y-69858430D01*
X53616681Y-69858427D01*
X53423495Y-69820000D01*
X53175000Y-69820000D01*
X53175000Y-70520000D01*
X52675000Y-70520000D01*
X52675000Y-69820000D01*
X52426504Y-69820000D01*
X52233318Y-69858427D01*
X52233306Y-69858430D01*
X52051328Y-69933807D01*
X52051315Y-69933814D01*
X51887537Y-70043248D01*
X51887533Y-70043251D01*
X51748251Y-70182533D01*
X51748248Y-70182537D01*
X51638814Y-70346315D01*
X51638807Y-70346328D01*
X51563430Y-70528307D01*
X51563430Y-70528309D01*
X51555138Y-70570000D01*
X50500500Y-70570000D01*
X50500500Y-67799996D01*
X58794435Y-67799996D01*
X58794435Y-67800003D01*
X58814630Y-67979249D01*
X58814631Y-67979254D01*
X58874211Y-68149523D01*
X58953013Y-68274934D01*
X58970184Y-68302262D01*
X59097738Y-68429816D01*
X59250478Y-68525789D01*
X59420745Y-68585368D01*
X59464635Y-68590313D01*
X59529048Y-68617378D01*
X59538433Y-68625852D01*
X59712589Y-68800008D01*
X59762102Y-68849521D01*
X59799993Y-68887412D01*
X59902760Y-68956079D01*
X59902773Y-68956086D01*
X59950071Y-68975677D01*
X60016965Y-69003385D01*
X60016969Y-69003385D01*
X60016970Y-69003386D01*
X60138194Y-69027500D01*
X60138197Y-69027500D01*
X60261803Y-69027500D01*
X65658328Y-69027500D01*
X65724300Y-69046506D01*
X65841113Y-69119905D01*
X65850478Y-69125789D01*
X66016464Y-69183870D01*
X66020745Y-69185368D01*
X66020750Y-69185369D01*
X66199996Y-69205565D01*
X66200000Y-69205565D01*
X66200004Y-69205565D01*
X66379249Y-69185369D01*
X66379252Y-69185368D01*
X66379255Y-69185368D01*
X66549522Y-69125789D01*
X66702262Y-69029816D01*
X66829816Y-68902262D01*
X66845007Y-68878084D01*
X66897339Y-68831796D01*
X66966393Y-68821146D01*
X67030242Y-68849521D01*
X67054990Y-68878082D01*
X67070184Y-68902262D01*
X67197738Y-69029816D01*
X67288080Y-69086582D01*
X67341113Y-69119905D01*
X67350478Y-69125789D01*
X67516464Y-69183870D01*
X67520745Y-69185368D01*
X67520750Y-69185369D01*
X67699996Y-69205565D01*
X67700000Y-69205565D01*
X67700004Y-69205565D01*
X67879249Y-69185369D01*
X67879252Y-69185368D01*
X67879255Y-69185368D01*
X68049522Y-69125789D01*
X68202262Y-69029816D01*
X68329816Y-68902262D01*
X68425789Y-68749522D01*
X68485368Y-68579255D01*
X68491392Y-68525789D01*
X68505565Y-68400003D01*
X68505565Y-68399996D01*
X68485369Y-68220750D01*
X68485368Y-68220745D01*
X68460446Y-68149522D01*
X68425789Y-68050478D01*
X68329816Y-67897738D01*
X68202262Y-67770184D01*
X68049521Y-67674210D01*
X67879249Y-67614630D01*
X67835361Y-67609685D01*
X67770948Y-67582617D01*
X67761566Y-67574146D01*
X67400015Y-67212595D01*
X67400009Y-67212590D01*
X67389493Y-67205563D01*
X67389493Y-67205562D01*
X67297230Y-67143915D01*
X67245473Y-67122477D01*
X67183035Y-67096614D01*
X67183027Y-67096612D01*
X67061807Y-67072500D01*
X67061803Y-67072500D01*
X65111281Y-67072500D01*
X65044242Y-67052815D01*
X65023600Y-67036181D01*
X62500013Y-64512593D01*
X62500007Y-64512588D01*
X62476100Y-64496614D01*
X62397239Y-64443920D01*
X62397226Y-64443913D01*
X62353469Y-64425789D01*
X62283035Y-64396614D01*
X62283027Y-64396612D01*
X62161807Y-64372500D01*
X62161803Y-64372500D01*
X61741672Y-64372500D01*
X61675700Y-64353494D01*
X61549523Y-64274211D01*
X61379254Y-64214631D01*
X61379249Y-64214630D01*
X61200004Y-64194435D01*
X61199996Y-64194435D01*
X61020750Y-64214630D01*
X61020745Y-64214631D01*
X60850476Y-64274211D01*
X60697737Y-64370184D01*
X60570184Y-64497737D01*
X60474211Y-64650476D01*
X60414631Y-64820745D01*
X60414630Y-64820750D01*
X60394435Y-64999996D01*
X60394435Y-65000003D01*
X60414630Y-65179249D01*
X60414631Y-65179254D01*
X60474211Y-65349523D01*
X60555724Y-65479249D01*
X60570184Y-65502262D01*
X60697738Y-65629816D01*
X60788080Y-65686582D01*
X60849820Y-65725376D01*
X60850478Y-65725789D01*
X60977352Y-65770184D01*
X61020745Y-65785368D01*
X61020750Y-65785369D01*
X61199996Y-65805565D01*
X61200000Y-65805565D01*
X61200004Y-65805565D01*
X61379249Y-65785369D01*
X61379252Y-65785368D01*
X61379255Y-65785368D01*
X61549522Y-65725789D01*
X61675700Y-65646505D01*
X61741672Y-65627500D01*
X61788719Y-65627500D01*
X61855758Y-65647185D01*
X61876400Y-65663819D01*
X63773400Y-67560819D01*
X63806885Y-67622142D01*
X63801901Y-67691834D01*
X63760029Y-67747767D01*
X63694565Y-67772184D01*
X63685719Y-67772500D01*
X60513280Y-67772500D01*
X60446241Y-67752815D01*
X60400486Y-67700011D01*
X60390060Y-67662383D01*
X60385369Y-67620750D01*
X60385368Y-67620745D01*
X60325788Y-67450476D01*
X60229815Y-67297737D01*
X60102262Y-67170184D01*
X59949523Y-67074211D01*
X59779254Y-67014631D01*
X59779249Y-67014630D01*
X59600004Y-66994435D01*
X59599996Y-66994435D01*
X59420750Y-67014630D01*
X59420745Y-67014631D01*
X59250476Y-67074211D01*
X59097737Y-67170184D01*
X58970184Y-67297737D01*
X58874211Y-67450476D01*
X58814631Y-67620745D01*
X58814630Y-67620750D01*
X58794435Y-67799996D01*
X50500500Y-67799996D01*
X50500500Y-61930000D01*
X51555138Y-61930000D01*
X52358012Y-61930000D01*
X52340795Y-61939940D01*
X52284940Y-61995795D01*
X52245444Y-62064204D01*
X52225000Y-62140504D01*
X52225000Y-62219496D01*
X52245444Y-62295796D01*
X52284940Y-62364205D01*
X52340795Y-62420060D01*
X52358012Y-62430000D01*
X51555138Y-62430000D01*
X51563430Y-62471690D01*
X51563430Y-62471692D01*
X51638807Y-62653671D01*
X51638814Y-62653684D01*
X51748248Y-62817462D01*
X51748251Y-62817466D01*
X51887533Y-62956748D01*
X51887537Y-62956751D01*
X52051315Y-63066185D01*
X52051328Y-63066192D01*
X52233306Y-63141569D01*
X52233318Y-63141572D01*
X52426504Y-63179999D01*
X52426508Y-63180000D01*
X52675000Y-63180000D01*
X52675000Y-62480000D01*
X53175000Y-62480000D01*
X53175000Y-63180000D01*
X53423492Y-63180000D01*
X53423495Y-63179999D01*
X53616681Y-63141572D01*
X53616693Y-63141569D01*
X53798671Y-63066192D01*
X53798684Y-63066185D01*
X53962462Y-62956751D01*
X53962466Y-62956748D01*
X54101748Y-62817466D01*
X54101751Y-62817462D01*
X54211185Y-62653684D01*
X54211192Y-62653671D01*
X54286569Y-62471692D01*
X54286569Y-62471690D01*
X54294862Y-62430000D01*
X53491988Y-62430000D01*
X53509205Y-62420060D01*
X53565060Y-62364205D01*
X53604556Y-62295796D01*
X53625000Y-62219496D01*
X53625000Y-62140504D01*
X53604556Y-62064204D01*
X53565060Y-61995795D01*
X53509205Y-61939940D01*
X53491988Y-61930000D01*
X54294862Y-61930000D01*
X55585138Y-61930000D01*
X56388012Y-61930000D01*
X56370795Y-61939940D01*
X56314940Y-61995795D01*
X56275444Y-62064204D01*
X56255000Y-62140504D01*
X56255000Y-62219496D01*
X56275444Y-62295796D01*
X56314940Y-62364205D01*
X56370795Y-62420060D01*
X56388012Y-62430000D01*
X55585138Y-62430000D01*
X55593430Y-62471690D01*
X55593430Y-62471692D01*
X55668807Y-62653671D01*
X55668814Y-62653684D01*
X55778248Y-62817462D01*
X55778251Y-62817466D01*
X55917533Y-62956748D01*
X55917537Y-62956751D01*
X56081315Y-63066185D01*
X56081328Y-63066192D01*
X56090838Y-63070131D01*
X56145243Y-63113970D01*
X56167310Y-63180264D01*
X56150033Y-63247963D01*
X56146350Y-63253405D01*
X56068719Y-63387863D01*
X56029500Y-63534234D01*
X56029500Y-63685765D01*
X56068719Y-63832136D01*
X56082260Y-63855589D01*
X56144485Y-63963365D01*
X56251635Y-64070515D01*
X56382865Y-64146281D01*
X56529234Y-64185500D01*
X56529236Y-64185500D01*
X56680764Y-64185500D01*
X56680766Y-64185500D01*
X56827135Y-64146281D01*
X56958365Y-64070515D01*
X57065515Y-63963365D01*
X57141281Y-63832135D01*
X57180500Y-63685766D01*
X57180500Y-63534234D01*
X57141281Y-63387865D01*
X57141279Y-63387861D01*
X57128658Y-63366000D01*
X57112185Y-63298099D01*
X57135038Y-63232073D01*
X57189959Y-63188882D01*
X57236045Y-63180000D01*
X57753492Y-63180000D01*
X57753495Y-63179999D01*
X57946681Y-63141572D01*
X57946693Y-63141569D01*
X58128671Y-63066192D01*
X58128684Y-63066185D01*
X58292462Y-62956751D01*
X58292466Y-62956748D01*
X58431748Y-62817466D01*
X58431751Y-62817462D01*
X58541185Y-62653684D01*
X58541192Y-62653671D01*
X58616569Y-62471692D01*
X58616569Y-62471690D01*
X58624862Y-62430000D01*
X57821988Y-62430000D01*
X57839205Y-62420060D01*
X57895060Y-62364205D01*
X57934556Y-62295796D01*
X57955000Y-62219496D01*
X57955000Y-62140504D01*
X57934556Y-62064204D01*
X57895060Y-61995795D01*
X57839205Y-61939940D01*
X57821988Y-61930000D01*
X58624862Y-61930000D01*
X58616569Y-61888309D01*
X58616569Y-61888307D01*
X58541192Y-61706328D01*
X58541185Y-61706315D01*
X58431751Y-61542537D01*
X58431748Y-61542533D01*
X58292466Y-61403251D01*
X58292462Y-61403248D01*
X58128684Y-61293814D01*
X58128671Y-61293807D01*
X57946693Y-61218430D01*
X57946681Y-61218427D01*
X57753495Y-61180000D01*
X57355000Y-61180000D01*
X57355000Y-61880000D01*
X56855000Y-61880000D01*
X56855000Y-61180000D01*
X56456504Y-61180000D01*
X56263318Y-61218427D01*
X56263306Y-61218430D01*
X56081328Y-61293807D01*
X56081315Y-61293814D01*
X55917537Y-61403248D01*
X55917533Y-61403251D01*
X55778251Y-61542533D01*
X55778248Y-61542537D01*
X55668814Y-61706315D01*
X55668807Y-61706328D01*
X55593430Y-61888307D01*
X55593430Y-61888309D01*
X55585138Y-61930000D01*
X54294862Y-61930000D01*
X54286569Y-61888309D01*
X54286569Y-61888307D01*
X54211192Y-61706328D01*
X54211185Y-61706315D01*
X54101751Y-61542537D01*
X54101748Y-61542533D01*
X53962466Y-61403251D01*
X53962462Y-61403248D01*
X53798684Y-61293814D01*
X53798671Y-61293807D01*
X53616693Y-61218430D01*
X53616681Y-61218427D01*
X53423495Y-61180000D01*
X53175000Y-61180000D01*
X53175000Y-61880000D01*
X52675000Y-61880000D01*
X52675000Y-61180000D01*
X52426504Y-61180000D01*
X52233318Y-61218427D01*
X52233306Y-61218430D01*
X52051328Y-61293807D01*
X52051315Y-61293814D01*
X51887537Y-61403248D01*
X51887533Y-61403251D01*
X51748251Y-61542533D01*
X51748248Y-61542537D01*
X51638814Y-61706315D01*
X51638807Y-61706328D01*
X51563430Y-61888307D01*
X51563430Y-61888309D01*
X51555138Y-61930000D01*
X50500500Y-61930000D01*
X50500500Y-57999996D01*
X71194435Y-57999996D01*
X71194435Y-58000003D01*
X71214630Y-58179249D01*
X71214631Y-58179254D01*
X71274211Y-58349523D01*
X71319841Y-58422142D01*
X71370184Y-58502262D01*
X71497738Y-58629816D01*
X71650478Y-58725789D01*
X71820745Y-58785368D01*
X71864635Y-58790313D01*
X71929048Y-58817378D01*
X71938433Y-58825852D01*
X72103980Y-58991399D01*
X72137465Y-59052722D01*
X72132481Y-59122414D01*
X72090609Y-59178347D01*
X72030183Y-59202300D01*
X71920749Y-59214630D01*
X71920745Y-59214631D01*
X71750476Y-59274211D01*
X71597737Y-59370184D01*
X71470184Y-59497737D01*
X71374211Y-59650476D01*
X71314631Y-59820745D01*
X71314630Y-59820750D01*
X71294435Y-59999996D01*
X71294435Y-60000003D01*
X71314630Y-60179249D01*
X71314631Y-60179254D01*
X71374211Y-60349523D01*
X71470184Y-60502262D01*
X71597738Y-60629816D01*
X71750478Y-60725789D01*
X71919162Y-60784814D01*
X71920745Y-60785368D01*
X71920750Y-60785369D01*
X72099996Y-60805565D01*
X72100000Y-60805565D01*
X72100004Y-60805565D01*
X72279249Y-60785369D01*
X72279252Y-60785368D01*
X72279255Y-60785368D01*
X72449522Y-60725789D01*
X72575700Y-60646505D01*
X72641672Y-60627500D01*
X79046667Y-60627500D01*
X79113706Y-60647185D01*
X79134348Y-60663819D01*
X84878537Y-66408008D01*
X84952114Y-66481585D01*
X84965941Y-66495412D01*
X85068708Y-66564079D01*
X85068721Y-66564086D01*
X85182908Y-66611383D01*
X85182913Y-66611385D01*
X85182917Y-66611385D01*
X85182918Y-66611386D01*
X85304142Y-66635500D01*
X85304145Y-66635500D01*
X126337909Y-66635500D01*
X126337910Y-66635499D01*
X126459140Y-66611386D01*
X126539889Y-66577937D01*
X126573338Y-66564083D01*
X126676113Y-66495411D01*
X126763516Y-66408008D01*
X127029463Y-66142061D01*
X127029463Y-66142060D01*
X128007704Y-65163819D01*
X128069027Y-65130334D01*
X128095385Y-65127500D01*
X130103039Y-65127500D01*
X130170078Y-65147185D01*
X130213525Y-65195208D01*
X130219949Y-65207818D01*
X130344890Y-65379786D01*
X130495209Y-65530105D01*
X130495214Y-65530109D01*
X130659793Y-65649682D01*
X130702459Y-65705011D01*
X130708438Y-65774625D01*
X130675833Y-65836420D01*
X130659793Y-65850318D01*
X130495214Y-65969890D01*
X130495209Y-65969894D01*
X130344890Y-66120213D01*
X130219951Y-66292179D01*
X130123444Y-66481585D01*
X130057753Y-66683760D01*
X130034987Y-66827500D01*
X130024500Y-66893713D01*
X130024500Y-67106287D01*
X130057754Y-67316243D01*
X130093742Y-67427003D01*
X130123444Y-67518414D01*
X130219951Y-67707820D01*
X130344890Y-67879786D01*
X130495209Y-68030105D01*
X130495214Y-68030109D01*
X130660218Y-68149991D01*
X130702884Y-68205320D01*
X130708863Y-68274934D01*
X130676258Y-68336729D01*
X130660218Y-68350627D01*
X130495540Y-68470272D01*
X130495535Y-68470276D01*
X130345276Y-68620535D01*
X130345272Y-68620540D01*
X130220379Y-68792442D01*
X130123904Y-68981782D01*
X130058242Y-69183870D01*
X130058242Y-69183873D01*
X130047769Y-69250000D01*
X131095854Y-69250000D01*
X131057370Y-69316657D01*
X131025000Y-69437465D01*
X131025000Y-69562535D01*
X131057370Y-69683343D01*
X131095854Y-69750000D01*
X130047769Y-69750000D01*
X130058242Y-69816126D01*
X130058242Y-69816129D01*
X130123904Y-70018217D01*
X130220379Y-70207557D01*
X130345272Y-70379459D01*
X130345276Y-70379464D01*
X130495535Y-70529723D01*
X130495540Y-70529727D01*
X130667442Y-70654620D01*
X130856782Y-70751095D01*
X131058872Y-70816757D01*
X131250000Y-70847029D01*
X131250000Y-69904145D01*
X131316657Y-69942630D01*
X131437465Y-69975000D01*
X131562535Y-69975000D01*
X131683343Y-69942630D01*
X131750000Y-69904145D01*
X131750000Y-70847028D01*
X131941127Y-70816757D01*
X132143217Y-70751095D01*
X132332557Y-70654620D01*
X132504459Y-70529727D01*
X132504464Y-70529723D01*
X132654723Y-70379464D01*
X132654727Y-70379459D01*
X132779620Y-70207557D01*
X132876095Y-70018217D01*
X132941757Y-69816129D01*
X132941757Y-69816126D01*
X132952231Y-69750000D01*
X131904146Y-69750000D01*
X131942630Y-69683343D01*
X131975000Y-69562535D01*
X131975000Y-69437465D01*
X131942630Y-69316657D01*
X131904146Y-69250000D01*
X132952231Y-69250000D01*
X132941757Y-69183873D01*
X132941757Y-69183870D01*
X132876095Y-68981782D01*
X132779620Y-68792442D01*
X132654727Y-68620540D01*
X132654723Y-68620535D01*
X132504464Y-68470276D01*
X132504459Y-68470272D01*
X132339781Y-68350627D01*
X132297115Y-68295297D01*
X132291136Y-68225684D01*
X132323741Y-68163889D01*
X132339776Y-68149994D01*
X132504792Y-68030104D01*
X132655104Y-67879792D01*
X132655106Y-67879788D01*
X132655109Y-67879786D01*
X132780048Y-67707820D01*
X132780047Y-67707820D01*
X132780051Y-67707816D01*
X132876557Y-67518412D01*
X132942246Y-67316243D01*
X132975500Y-67106287D01*
X132975500Y-66893713D01*
X132942246Y-66683757D01*
X132876557Y-66481588D01*
X132780051Y-66292184D01*
X132780049Y-66292181D01*
X132780048Y-66292179D01*
X132655109Y-66120213D01*
X132504792Y-65969896D01*
X132449626Y-65929816D01*
X132340204Y-65850316D01*
X132297540Y-65794989D01*
X132291561Y-65725376D01*
X132324166Y-65663580D01*
X132340199Y-65649686D01*
X132504792Y-65530104D01*
X132655104Y-65379792D01*
X132655106Y-65379788D01*
X132655109Y-65379786D01*
X132780048Y-65207820D01*
X132780047Y-65207820D01*
X132780051Y-65207816D01*
X132876557Y-65018412D01*
X132942246Y-64816243D01*
X132975500Y-64606287D01*
X132975500Y-64393713D01*
X132942246Y-64183757D01*
X132876557Y-63981588D01*
X132780051Y-63792184D01*
X132780049Y-63792181D01*
X132780048Y-63792179D01*
X132655109Y-63620213D01*
X132504792Y-63469896D01*
X132476749Y-63449522D01*
X132340204Y-63350316D01*
X132297540Y-63294989D01*
X132291561Y-63225376D01*
X132324166Y-63163580D01*
X132340199Y-63149686D01*
X132504792Y-63030104D01*
X132655104Y-62879792D01*
X132655106Y-62879788D01*
X132655109Y-62879786D01*
X132780048Y-62707820D01*
X132780047Y-62707820D01*
X132780051Y-62707816D01*
X132876557Y-62518412D01*
X132942246Y-62316243D01*
X132975500Y-62106287D01*
X132975500Y-61893713D01*
X132942246Y-61683757D01*
X132876557Y-61481588D01*
X132780051Y-61292184D01*
X132780049Y-61292181D01*
X132780048Y-61292179D01*
X132655109Y-61120213D01*
X132516294Y-60981398D01*
X132482809Y-60920075D01*
X132487793Y-60850383D01*
X132529665Y-60794450D01*
X132538879Y-60788178D01*
X132544331Y-60784814D01*
X132544334Y-60784814D01*
X132693656Y-60692712D01*
X132817712Y-60568656D01*
X132909814Y-60419334D01*
X132964999Y-60252797D01*
X132975500Y-60150009D01*
X132975499Y-58849992D01*
X132972167Y-58817378D01*
X132964999Y-58747203D01*
X132964998Y-58747200D01*
X132957903Y-58725788D01*
X132909814Y-58580666D01*
X132817712Y-58431344D01*
X132693656Y-58307288D01*
X132600888Y-58250069D01*
X132544336Y-58215187D01*
X132544331Y-58215185D01*
X132542862Y-58214698D01*
X132377797Y-58160001D01*
X132377795Y-58160000D01*
X132275010Y-58149500D01*
X130724998Y-58149500D01*
X130724981Y-58149501D01*
X130622203Y-58160000D01*
X130622200Y-58160001D01*
X130455668Y-58215185D01*
X130455663Y-58215187D01*
X130306342Y-58307289D01*
X130182289Y-58431342D01*
X130090187Y-58580663D01*
X130090185Y-58580668D01*
X130073899Y-58629816D01*
X130035001Y-58747203D01*
X130035001Y-58747204D01*
X130035000Y-58747204D01*
X130024500Y-58849983D01*
X130024500Y-60036718D01*
X130004815Y-60103757D01*
X129988181Y-60124399D01*
X125676400Y-64436181D01*
X125615077Y-64469666D01*
X125588719Y-64472500D01*
X125328733Y-64472500D01*
X125261694Y-64452815D01*
X125215939Y-64400011D01*
X125205995Y-64330853D01*
X125225631Y-64279609D01*
X125293717Y-64177710D01*
X125293717Y-64177709D01*
X125293721Y-64177704D01*
X125369744Y-63994169D01*
X125408500Y-63799329D01*
X125408500Y-63600671D01*
X125369744Y-63405831D01*
X125293721Y-63222296D01*
X125293720Y-63222295D01*
X125293717Y-63222289D01*
X125183353Y-63057119D01*
X125183350Y-63057115D01*
X125042884Y-62916649D01*
X125042880Y-62916646D01*
X124877710Y-62806282D01*
X124877701Y-62806277D01*
X124694169Y-62730256D01*
X124694161Y-62730254D01*
X124499333Y-62691500D01*
X124499329Y-62691500D01*
X107169096Y-62691500D01*
X107102057Y-62671815D01*
X107081415Y-62655181D01*
X105942884Y-61516649D01*
X105942880Y-61516646D01*
X105777710Y-61406282D01*
X105777701Y-61406277D01*
X105594168Y-61330256D01*
X105594160Y-61330254D01*
X105399332Y-61291500D01*
X105399329Y-61291500D01*
X105200671Y-61291500D01*
X105200668Y-61291500D01*
X105005839Y-61330254D01*
X105005831Y-61330256D01*
X104822298Y-61406277D01*
X104822289Y-61406282D01*
X104657119Y-61516646D01*
X104657115Y-61516649D01*
X104516649Y-61657115D01*
X104516646Y-61657119D01*
X104406282Y-61822289D01*
X104406277Y-61822298D01*
X104330256Y-62005831D01*
X104330254Y-62005839D01*
X104291500Y-62200666D01*
X104291500Y-62399333D01*
X104330254Y-62594160D01*
X104330256Y-62594168D01*
X104406277Y-62777701D01*
X104406282Y-62777710D01*
X104516646Y-62942880D01*
X104516649Y-62942884D01*
X105834585Y-64260819D01*
X105868070Y-64322142D01*
X105863086Y-64391834D01*
X105821214Y-64447767D01*
X105755750Y-64472184D01*
X105746904Y-64472500D01*
X86111281Y-64472500D01*
X86044242Y-64452815D01*
X86023600Y-64436181D01*
X84687415Y-63099996D01*
X93694435Y-63099996D01*
X93694435Y-63100003D01*
X93714630Y-63279249D01*
X93714631Y-63279254D01*
X93774211Y-63449523D01*
X93805933Y-63500008D01*
X93870184Y-63602262D01*
X93997738Y-63729816D01*
X94088080Y-63786582D01*
X94109452Y-63800011D01*
X94150478Y-63825789D01*
X94320745Y-63885368D01*
X94320750Y-63885369D01*
X94499996Y-63905565D01*
X94500000Y-63905565D01*
X94500004Y-63905565D01*
X94679249Y-63885369D01*
X94679252Y-63885368D01*
X94679255Y-63885368D01*
X94849522Y-63825789D01*
X95002262Y-63729816D01*
X95002266Y-63729811D01*
X95007034Y-63726816D01*
X95048815Y-63710192D01*
X95083035Y-63703386D01*
X95163784Y-63669937D01*
X95197233Y-63656083D01*
X95300008Y-63587411D01*
X95387411Y-63500008D01*
X98862405Y-60025013D01*
X113650000Y-60025013D01*
X113650000Y-60550000D01*
X114595854Y-60550000D01*
X114557370Y-60616657D01*
X114525000Y-60737465D01*
X114525000Y-60862535D01*
X114557370Y-60983343D01*
X114595854Y-61050000D01*
X113650001Y-61050000D01*
X113650001Y-61574986D01*
X113660494Y-61677697D01*
X113715641Y-61844119D01*
X113715643Y-61844124D01*
X113807684Y-61993345D01*
X113931654Y-62117315D01*
X114080875Y-62209356D01*
X114080880Y-62209358D01*
X114247302Y-62264505D01*
X114247309Y-62264506D01*
X114350019Y-62274999D01*
X114749999Y-62274999D01*
X114750000Y-62274998D01*
X114750000Y-61204145D01*
X114816657Y-61242630D01*
X114937465Y-61275000D01*
X115062535Y-61275000D01*
X115183343Y-61242630D01*
X115250000Y-61204145D01*
X115250000Y-62274999D01*
X115649972Y-62274999D01*
X115649986Y-62274998D01*
X115752697Y-62264505D01*
X115919119Y-62209358D01*
X115919124Y-62209356D01*
X116068345Y-62117315D01*
X116192317Y-61993343D01*
X116287815Y-61838516D01*
X116339763Y-61791791D01*
X116408725Y-61780568D01*
X116472808Y-61808412D01*
X116481035Y-61815931D01*
X116620213Y-61955109D01*
X116792179Y-62080048D01*
X116792181Y-62080049D01*
X116792184Y-62080051D01*
X116981588Y-62176557D01*
X117183757Y-62242246D01*
X117393713Y-62275500D01*
X117393714Y-62275500D01*
X117606286Y-62275500D01*
X117606287Y-62275500D01*
X117816243Y-62242246D01*
X118018412Y-62176557D01*
X118207816Y-62080051D01*
X118309961Y-62005839D01*
X118379786Y-61955109D01*
X118379788Y-61955106D01*
X118379792Y-61955104D01*
X118530104Y-61804792D01*
X118649683Y-61640204D01*
X118705011Y-61597540D01*
X118774624Y-61591561D01*
X118836420Y-61624166D01*
X118850313Y-61640199D01*
X118952296Y-61780568D01*
X118969896Y-61804792D01*
X119120213Y-61955109D01*
X119292179Y-62080048D01*
X119292181Y-62080049D01*
X119292184Y-62080051D01*
X119481588Y-62176557D01*
X119683757Y-62242246D01*
X119893713Y-62275500D01*
X119893714Y-62275500D01*
X120106286Y-62275500D01*
X120106287Y-62275500D01*
X120316243Y-62242246D01*
X120518412Y-62176557D01*
X120707816Y-62080051D01*
X120809961Y-62005839D01*
X120879786Y-61955109D01*
X120879788Y-61955106D01*
X120879792Y-61955104D01*
X121030104Y-61804792D01*
X121149683Y-61640204D01*
X121205011Y-61597540D01*
X121274624Y-61591561D01*
X121336420Y-61624166D01*
X121350313Y-61640199D01*
X121452296Y-61780568D01*
X121469896Y-61804792D01*
X121620213Y-61955109D01*
X121792179Y-62080048D01*
X121792181Y-62080049D01*
X121792184Y-62080051D01*
X121981588Y-62176557D01*
X122183757Y-62242246D01*
X122393713Y-62275500D01*
X122393714Y-62275500D01*
X122606286Y-62275500D01*
X122606287Y-62275500D01*
X122816243Y-62242246D01*
X123018412Y-62176557D01*
X123207816Y-62080051D01*
X123309961Y-62005839D01*
X123379786Y-61955109D01*
X123379788Y-61955106D01*
X123379792Y-61955104D01*
X123530104Y-61804792D01*
X123530106Y-61804788D01*
X123530109Y-61804786D01*
X123655048Y-61632820D01*
X123655047Y-61632820D01*
X123655051Y-61632816D01*
X123751557Y-61443412D01*
X123817246Y-61241243D01*
X123850500Y-61031287D01*
X123850500Y-60568713D01*
X123817246Y-60358757D01*
X123751557Y-60156588D01*
X123655051Y-59967184D01*
X123655049Y-59967181D01*
X123655048Y-59967179D01*
X123530109Y-59795213D01*
X123379786Y-59644890D01*
X123207820Y-59519951D01*
X123018414Y-59423444D01*
X123018413Y-59423443D01*
X123018412Y-59423443D01*
X122816243Y-59357754D01*
X122816241Y-59357753D01*
X122816240Y-59357753D01*
X122654957Y-59332208D01*
X122606287Y-59324500D01*
X122393713Y-59324500D01*
X122345042Y-59332208D01*
X122183760Y-59357753D01*
X121981585Y-59423444D01*
X121792179Y-59519951D01*
X121620213Y-59644890D01*
X121469894Y-59795209D01*
X121469890Y-59795214D01*
X121350318Y-59959793D01*
X121294989Y-60002459D01*
X121225375Y-60008438D01*
X121163580Y-59975833D01*
X121149682Y-59959793D01*
X121030109Y-59795214D01*
X121030105Y-59795209D01*
X120879786Y-59644890D01*
X120707820Y-59519951D01*
X120518414Y-59423444D01*
X120518413Y-59423443D01*
X120518412Y-59423443D01*
X120316243Y-59357754D01*
X120316241Y-59357753D01*
X120316240Y-59357753D01*
X120154957Y-59332208D01*
X120106287Y-59324500D01*
X119893713Y-59324500D01*
X119845042Y-59332208D01*
X119683760Y-59357753D01*
X119481585Y-59423444D01*
X119292179Y-59519951D01*
X119120213Y-59644890D01*
X118969894Y-59795209D01*
X118969890Y-59795214D01*
X118850318Y-59959793D01*
X118794989Y-60002459D01*
X118725375Y-60008438D01*
X118663580Y-59975833D01*
X118649682Y-59959793D01*
X118530109Y-59795214D01*
X118530105Y-59795209D01*
X118379786Y-59644890D01*
X118207820Y-59519951D01*
X118018414Y-59423444D01*
X118018413Y-59423443D01*
X118018412Y-59423443D01*
X117816243Y-59357754D01*
X117816241Y-59357753D01*
X117816240Y-59357753D01*
X117654957Y-59332208D01*
X117606287Y-59324500D01*
X117393713Y-59324500D01*
X117345042Y-59332208D01*
X117183760Y-59357753D01*
X116981585Y-59423444D01*
X116792179Y-59519951D01*
X116620215Y-59644889D01*
X116481035Y-59784069D01*
X116419712Y-59817553D01*
X116350020Y-59812569D01*
X116294087Y-59770697D01*
X116287815Y-59761484D01*
X116192315Y-59606654D01*
X116068345Y-59482684D01*
X115919124Y-59390643D01*
X115919119Y-59390641D01*
X115752697Y-59335494D01*
X115752690Y-59335493D01*
X115649986Y-59325000D01*
X115250000Y-59325000D01*
X115250000Y-60395854D01*
X115183343Y-60357370D01*
X115062535Y-60325000D01*
X114937465Y-60325000D01*
X114816657Y-60357370D01*
X114750000Y-60395854D01*
X114750000Y-59325000D01*
X114350028Y-59325000D01*
X114350012Y-59325001D01*
X114247302Y-59335494D01*
X114080880Y-59390641D01*
X114080875Y-59390643D01*
X113931654Y-59482684D01*
X113807684Y-59606654D01*
X113715643Y-59755875D01*
X113715641Y-59755880D01*
X113660494Y-59922302D01*
X113660493Y-59922309D01*
X113650000Y-60025013D01*
X98862405Y-60025013D01*
X101561567Y-57325850D01*
X101622888Y-57292367D01*
X101635345Y-57290315D01*
X101679255Y-57285368D01*
X101849522Y-57225789D01*
X102002262Y-57129816D01*
X102129816Y-57002262D01*
X102225789Y-56849522D01*
X102285368Y-56679255D01*
X102305565Y-56500000D01*
X102295171Y-56407752D01*
X102285369Y-56320750D01*
X102285368Y-56320745D01*
X102225788Y-56150476D01*
X102129815Y-55997737D01*
X102002262Y-55870184D01*
X101849523Y-55774211D01*
X101679254Y-55714631D01*
X101679249Y-55714630D01*
X101500004Y-55694435D01*
X101499996Y-55694435D01*
X101320750Y-55714630D01*
X101320745Y-55714631D01*
X101150476Y-55774211D01*
X100997737Y-55870184D01*
X100870184Y-55997737D01*
X100774210Y-56150478D01*
X100714632Y-56320745D01*
X100709686Y-56364637D01*
X100682618Y-56429051D01*
X100674147Y-56438432D01*
X94822275Y-62290304D01*
X94760952Y-62323789D01*
X94693642Y-62319665D01*
X94679258Y-62314632D01*
X94679253Y-62314631D01*
X94500004Y-62294435D01*
X94499996Y-62294435D01*
X94320750Y-62314630D01*
X94320745Y-62314631D01*
X94150476Y-62374211D01*
X93997737Y-62470184D01*
X93870184Y-62597737D01*
X93774211Y-62750476D01*
X93714631Y-62920745D01*
X93714630Y-62920750D01*
X93694435Y-63099996D01*
X84687415Y-63099996D01*
X78600009Y-57012590D01*
X78600008Y-57012589D01*
X78590564Y-57006279D01*
X78590560Y-57006276D01*
X78497238Y-56943920D01*
X78497226Y-56943913D01*
X78463785Y-56930062D01*
X78383035Y-56896614D01*
X78383027Y-56896612D01*
X78261807Y-56872500D01*
X78261803Y-56872500D01*
X74141672Y-56872500D01*
X74075700Y-56853494D01*
X73949523Y-56774211D01*
X73779254Y-56714631D01*
X73779249Y-56714630D01*
X73600004Y-56694435D01*
X73599996Y-56694435D01*
X73420750Y-56714630D01*
X73420745Y-56714631D01*
X73250476Y-56774211D01*
X73097737Y-56870184D01*
X72970184Y-56997737D01*
X72874211Y-57150476D01*
X72814631Y-57320745D01*
X72814630Y-57320749D01*
X72806823Y-57390047D01*
X72779757Y-57454460D01*
X72722162Y-57494016D01*
X72652325Y-57496153D01*
X72595922Y-57463844D01*
X72502262Y-57370184D01*
X72349523Y-57274211D01*
X72179254Y-57214631D01*
X72179249Y-57214630D01*
X72000004Y-57194435D01*
X71999996Y-57194435D01*
X71820750Y-57214630D01*
X71820745Y-57214631D01*
X71650476Y-57274211D01*
X71497737Y-57370184D01*
X71370184Y-57497737D01*
X71274211Y-57650476D01*
X71214631Y-57820745D01*
X71214630Y-57820750D01*
X71194435Y-57999996D01*
X50500500Y-57999996D01*
X50500500Y-53003750D01*
X50500613Y-52999998D01*
X50994390Y-52999998D01*
X50994390Y-53000001D01*
X51014804Y-53285433D01*
X51075628Y-53565037D01*
X51075630Y-53565043D01*
X51075631Y-53565046D01*
X51171523Y-53822142D01*
X51175635Y-53833166D01*
X51312770Y-54084309D01*
X51312775Y-54084317D01*
X51484254Y-54313387D01*
X51484270Y-54313405D01*
X51686594Y-54515729D01*
X51686612Y-54515745D01*
X51915682Y-54687224D01*
X51915690Y-54687229D01*
X52166833Y-54824364D01*
X52166832Y-54824364D01*
X52166836Y-54824365D01*
X52166839Y-54824367D01*
X52434954Y-54924369D01*
X52434960Y-54924370D01*
X52434962Y-54924371D01*
X52714566Y-54985195D01*
X52714568Y-54985195D01*
X52714572Y-54985196D01*
X52968220Y-55003337D01*
X52999999Y-55005610D01*
X53000000Y-55005610D01*
X53000001Y-55005610D01*
X53028595Y-55003564D01*
X53078485Y-54999996D01*
X71994435Y-54999996D01*
X71994435Y-55000003D01*
X72014630Y-55179249D01*
X72014631Y-55179254D01*
X72074211Y-55349523D01*
X72096735Y-55385369D01*
X72170184Y-55502262D01*
X72297738Y-55629816D01*
X72388080Y-55686582D01*
X72432721Y-55714632D01*
X72450478Y-55725789D01*
X72588860Y-55774211D01*
X72620745Y-55785368D01*
X72620750Y-55785369D01*
X72799996Y-55805565D01*
X72800000Y-55805565D01*
X72800004Y-55805565D01*
X72979249Y-55785369D01*
X72979252Y-55785368D01*
X72979255Y-55785368D01*
X73149522Y-55725789D01*
X73302262Y-55629816D01*
X73429816Y-55502262D01*
X73525789Y-55349522D01*
X73539427Y-55310545D01*
X73580149Y-55253770D01*
X73645101Y-55228022D01*
X73656469Y-55227500D01*
X89758328Y-55227500D01*
X89824299Y-55246505D01*
X89950478Y-55325789D01*
X90018306Y-55349523D01*
X90120745Y-55385368D01*
X90120750Y-55385369D01*
X90299996Y-55405565D01*
X90300000Y-55405565D01*
X90300004Y-55405565D01*
X90479249Y-55385369D01*
X90479252Y-55385368D01*
X90479255Y-55385368D01*
X90649522Y-55325789D01*
X90802262Y-55229816D01*
X90915241Y-55116837D01*
X90976564Y-55083352D01*
X91046256Y-55088336D01*
X91090603Y-55116837D01*
X94455181Y-58481415D01*
X94488666Y-58542738D01*
X94491500Y-58569096D01*
X94491500Y-58999333D01*
X94530254Y-59194161D01*
X94530256Y-59194169D01*
X94606277Y-59377701D01*
X94606282Y-59377710D01*
X94716646Y-59542880D01*
X94716649Y-59542884D01*
X94857115Y-59683350D01*
X94857119Y-59683353D01*
X95022289Y-59793717D01*
X95022295Y-59793720D01*
X95022296Y-59793721D01*
X95205831Y-59869744D01*
X95400666Y-59908499D01*
X95400670Y-59908500D01*
X95400671Y-59908500D01*
X95599330Y-59908500D01*
X95599331Y-59908499D01*
X95794169Y-59869744D01*
X95977704Y-59793721D01*
X96142881Y-59683353D01*
X96283353Y-59542881D01*
X96393721Y-59377704D01*
X96469744Y-59194169D01*
X96508500Y-58999329D01*
X96508500Y-58000671D01*
X96469744Y-57805831D01*
X96418880Y-57683035D01*
X96417314Y-57679255D01*
X96393725Y-57622304D01*
X96393724Y-57622303D01*
X96393722Y-57622297D01*
X96287847Y-57463844D01*
X96283357Y-57457123D01*
X96283351Y-57457115D01*
X95942881Y-57116647D01*
X91051248Y-52225013D01*
X113650000Y-52225013D01*
X113650000Y-52750000D01*
X114595854Y-52750000D01*
X114557370Y-52816657D01*
X114525000Y-52937465D01*
X114525000Y-53062535D01*
X114557370Y-53183343D01*
X114595854Y-53250000D01*
X113650001Y-53250000D01*
X113650001Y-53774986D01*
X113660494Y-53877697D01*
X113715641Y-54044119D01*
X113715643Y-54044124D01*
X113807684Y-54193345D01*
X113931654Y-54317315D01*
X114080875Y-54409356D01*
X114080880Y-54409358D01*
X114247302Y-54464505D01*
X114247309Y-54464506D01*
X114350019Y-54474999D01*
X114749999Y-54474999D01*
X114750000Y-54474998D01*
X114750000Y-53404145D01*
X114816657Y-53442630D01*
X114937465Y-53475000D01*
X115062535Y-53475000D01*
X115183343Y-53442630D01*
X115250000Y-53404145D01*
X115250000Y-54474999D01*
X115649972Y-54474999D01*
X115649986Y-54474998D01*
X115752697Y-54464505D01*
X115919119Y-54409358D01*
X115919124Y-54409356D01*
X116068345Y-54317315D01*
X116192317Y-54193343D01*
X116287815Y-54038516D01*
X116339763Y-53991791D01*
X116408725Y-53980568D01*
X116472808Y-54008412D01*
X116481035Y-54015931D01*
X116620213Y-54155109D01*
X116792179Y-54280048D01*
X116792181Y-54280049D01*
X116792184Y-54280051D01*
X116981588Y-54376557D01*
X117183757Y-54442246D01*
X117393713Y-54475500D01*
X117393714Y-54475500D01*
X117606286Y-54475500D01*
X117606287Y-54475500D01*
X117816243Y-54442246D01*
X118018412Y-54376557D01*
X118207816Y-54280051D01*
X118229789Y-54264086D01*
X118379786Y-54155109D01*
X118379788Y-54155106D01*
X118379792Y-54155104D01*
X118530104Y-54004792D01*
X118649683Y-53840204D01*
X118705011Y-53797540D01*
X118774624Y-53791561D01*
X118836420Y-53824166D01*
X118850313Y-53840199D01*
X118944752Y-53970184D01*
X118969896Y-54004792D01*
X119120213Y-54155109D01*
X119292179Y-54280048D01*
X119292181Y-54280049D01*
X119292184Y-54280051D01*
X119481588Y-54376557D01*
X119683757Y-54442246D01*
X119893713Y-54475500D01*
X119893714Y-54475500D01*
X120106286Y-54475500D01*
X120106287Y-54475500D01*
X120316243Y-54442246D01*
X120518412Y-54376557D01*
X120707816Y-54280051D01*
X120729789Y-54264086D01*
X120879786Y-54155109D01*
X120879788Y-54155106D01*
X120879792Y-54155104D01*
X121030104Y-54004792D01*
X121149683Y-53840204D01*
X121205011Y-53797540D01*
X121274624Y-53791561D01*
X121336420Y-53824166D01*
X121350313Y-53840199D01*
X121444752Y-53970184D01*
X121469896Y-54004792D01*
X121620213Y-54155109D01*
X121792179Y-54280048D01*
X121792181Y-54280049D01*
X121792184Y-54280051D01*
X121981588Y-54376557D01*
X122183757Y-54442246D01*
X122393713Y-54475500D01*
X122393714Y-54475500D01*
X122606286Y-54475500D01*
X122606287Y-54475500D01*
X122816243Y-54442246D01*
X123018412Y-54376557D01*
X123207816Y-54280051D01*
X123229789Y-54264086D01*
X123379786Y-54155109D01*
X123379788Y-54155106D01*
X123379792Y-54155104D01*
X123530104Y-54004792D01*
X123530106Y-54004788D01*
X123530109Y-54004786D01*
X123655048Y-53832820D01*
X123655047Y-53832820D01*
X123655051Y-53832816D01*
X123751557Y-53643412D01*
X123817246Y-53441243D01*
X123850500Y-53231287D01*
X123850500Y-52768713D01*
X123817246Y-52558757D01*
X123751557Y-52356588D01*
X123655051Y-52167184D01*
X123655049Y-52167181D01*
X123655048Y-52167179D01*
X123530109Y-51995213D01*
X123379786Y-51844890D01*
X123207820Y-51719951D01*
X123018414Y-51623444D01*
X123018413Y-51623443D01*
X123018412Y-51623443D01*
X122816243Y-51557754D01*
X122816241Y-51557753D01*
X122816240Y-51557753D01*
X122654957Y-51532208D01*
X122606287Y-51524500D01*
X122393713Y-51524500D01*
X122345042Y-51532208D01*
X122183760Y-51557753D01*
X121981585Y-51623444D01*
X121792179Y-51719951D01*
X121620213Y-51844890D01*
X121469894Y-51995209D01*
X121469890Y-51995214D01*
X121350318Y-52159793D01*
X121294989Y-52202459D01*
X121225375Y-52208438D01*
X121163580Y-52175833D01*
X121149682Y-52159793D01*
X121030109Y-51995214D01*
X121030105Y-51995209D01*
X120879786Y-51844890D01*
X120707820Y-51719951D01*
X120518414Y-51623444D01*
X120518413Y-51623443D01*
X120518412Y-51623443D01*
X120316243Y-51557754D01*
X120316241Y-51557753D01*
X120316240Y-51557753D01*
X120154957Y-51532208D01*
X120106287Y-51524500D01*
X119893713Y-51524500D01*
X119845042Y-51532208D01*
X119683760Y-51557753D01*
X119481585Y-51623444D01*
X119292179Y-51719951D01*
X119120213Y-51844890D01*
X118969894Y-51995209D01*
X118969890Y-51995214D01*
X118850318Y-52159793D01*
X118794989Y-52202459D01*
X118725375Y-52208438D01*
X118663580Y-52175833D01*
X118649682Y-52159793D01*
X118530109Y-51995214D01*
X118530105Y-51995209D01*
X118379786Y-51844890D01*
X118207820Y-51719951D01*
X118018414Y-51623444D01*
X118018413Y-51623443D01*
X118018412Y-51623443D01*
X117816243Y-51557754D01*
X117816241Y-51557753D01*
X117816240Y-51557753D01*
X117654957Y-51532208D01*
X117606287Y-51524500D01*
X117393713Y-51524500D01*
X117345042Y-51532208D01*
X117183760Y-51557753D01*
X116981585Y-51623444D01*
X116792179Y-51719951D01*
X116620215Y-51844889D01*
X116481035Y-51984069D01*
X116419712Y-52017553D01*
X116350020Y-52012569D01*
X116294087Y-51970697D01*
X116287815Y-51961484D01*
X116192315Y-51806654D01*
X116068345Y-51682684D01*
X115919124Y-51590643D01*
X115919119Y-51590641D01*
X115752697Y-51535494D01*
X115752690Y-51535493D01*
X115649986Y-51525000D01*
X115250000Y-51525000D01*
X115250000Y-52595854D01*
X115183343Y-52557370D01*
X115062535Y-52525000D01*
X114937465Y-52525000D01*
X114816657Y-52557370D01*
X114750000Y-52595854D01*
X114750000Y-51525000D01*
X114350028Y-51525000D01*
X114350012Y-51525001D01*
X114247302Y-51535494D01*
X114080880Y-51590641D01*
X114080875Y-51590643D01*
X113931654Y-51682684D01*
X113807684Y-51806654D01*
X113715643Y-51955875D01*
X113715641Y-51955880D01*
X113660494Y-52122302D01*
X113660493Y-52122309D01*
X113650000Y-52225013D01*
X91051248Y-52225013D01*
X90642884Y-51816649D01*
X90642880Y-51816646D01*
X90477710Y-51706282D01*
X90477701Y-51706277D01*
X90430207Y-51686605D01*
X90294169Y-51630256D01*
X90294161Y-51630254D01*
X90099333Y-51591500D01*
X90099329Y-51591500D01*
X73000671Y-51591500D01*
X73000666Y-51591500D01*
X72805838Y-51630254D01*
X72805830Y-51630256D01*
X72622298Y-51706277D01*
X72622289Y-51706282D01*
X72457119Y-51816646D01*
X72457115Y-51816649D01*
X72316649Y-51957115D01*
X72316646Y-51957119D01*
X72206282Y-52122289D01*
X72206277Y-52122298D01*
X72130256Y-52305830D01*
X72130254Y-52305838D01*
X72091500Y-52500666D01*
X72091500Y-52699333D01*
X72130254Y-52894161D01*
X72130256Y-52894169D01*
X72206277Y-53077701D01*
X72206282Y-53077710D01*
X72316646Y-53242880D01*
X72316649Y-53242884D01*
X72457115Y-53383350D01*
X72457119Y-53383353D01*
X72622289Y-53493717D01*
X72622298Y-53493722D01*
X72663874Y-53510943D01*
X72805831Y-53569744D01*
X73000666Y-53608499D01*
X73000670Y-53608500D01*
X73000671Y-53608500D01*
X89530904Y-53608500D01*
X89597943Y-53628185D01*
X89618585Y-53644819D01*
X89734585Y-53760819D01*
X89768070Y-53822142D01*
X89763086Y-53891834D01*
X89721214Y-53947767D01*
X89655750Y-53972184D01*
X89646904Y-53972500D01*
X73138194Y-53972500D01*
X73016970Y-53996613D01*
X73016960Y-53996616D01*
X72902773Y-54043913D01*
X72902760Y-54043920D01*
X72799995Y-54112586D01*
X72738431Y-54174149D01*
X72677107Y-54207633D01*
X72664637Y-54209686D01*
X72620745Y-54214632D01*
X72450478Y-54274210D01*
X72297737Y-54370184D01*
X72170184Y-54497737D01*
X72074211Y-54650476D01*
X72014631Y-54820745D01*
X72014630Y-54820750D01*
X71994435Y-54999996D01*
X53078485Y-54999996D01*
X53285428Y-54985196D01*
X53565046Y-54924369D01*
X53833161Y-54824367D01*
X54084315Y-54687226D01*
X54313395Y-54515739D01*
X54515739Y-54313395D01*
X54687226Y-54084315D01*
X54824367Y-53833161D01*
X54924369Y-53565046D01*
X54951301Y-53441243D01*
X54985195Y-53285433D01*
X54985195Y-53285432D01*
X54985196Y-53285428D01*
X55005610Y-53000000D01*
X54985196Y-52714572D01*
X54981747Y-52698719D01*
X54924371Y-52434962D01*
X54924370Y-52434960D01*
X54924369Y-52434954D01*
X54824367Y-52166839D01*
X54744025Y-52019705D01*
X54687229Y-51915690D01*
X54687224Y-51915682D01*
X54515739Y-51686605D01*
X54515729Y-51686594D01*
X54313405Y-51484270D01*
X54313387Y-51484254D01*
X54084317Y-51312775D01*
X54084309Y-51312770D01*
X53833166Y-51175635D01*
X53833167Y-51175635D01*
X53695996Y-51124473D01*
X53565046Y-51075631D01*
X53565043Y-51075630D01*
X53565037Y-51075628D01*
X53285433Y-51014804D01*
X53000001Y-50994390D01*
X52999999Y-50994390D01*
X52714566Y-51014804D01*
X52434962Y-51075628D01*
X52166833Y-51175635D01*
X51915690Y-51312770D01*
X51915682Y-51312775D01*
X51686612Y-51484254D01*
X51686594Y-51484270D01*
X51484270Y-51686594D01*
X51484261Y-51686605D01*
X51312775Y-51915682D01*
X51312770Y-51915690D01*
X51175635Y-52166833D01*
X51075628Y-52434962D01*
X51014804Y-52714566D01*
X50994390Y-52999998D01*
X50500613Y-52999998D01*
X50500726Y-52996263D01*
X50504486Y-52934108D01*
X50518271Y-52706201D01*
X50520076Y-52691340D01*
X50555018Y-52500671D01*
X50571780Y-52409197D01*
X50575364Y-52394663D01*
X50603043Y-52305838D01*
X50660696Y-52120822D01*
X50665998Y-52106841D01*
X50783731Y-51845249D01*
X50790676Y-51832016D01*
X50939080Y-51586526D01*
X50947567Y-51574230D01*
X51124480Y-51348417D01*
X51134395Y-51337226D01*
X51337226Y-51134395D01*
X51348417Y-51124480D01*
X51574230Y-50947567D01*
X51586526Y-50939080D01*
X51832016Y-50790676D01*
X51845249Y-50783731D01*
X52106841Y-50665998D01*
X52120822Y-50660696D01*
X52394668Y-50575362D01*
X52409197Y-50571780D01*
X52691344Y-50520075D01*
X52706201Y-50518271D01*
X52996264Y-50500726D01*
X53003751Y-50500500D01*
X53065892Y-50500500D01*
X131501744Y-50500500D01*
X131568783Y-50520185D01*
G37*
G04 #@! TD.AperFunction*
M02*
