G04 #@! TF.GenerationSoftware,KiCad,Pcbnew,8.0.3-8.0.3-0~ubuntu20.04.1*
G04 #@! TF.CreationDate,2025-03-17T01:47:30-03:00*
G04 #@! TF.ProjectId,fuente_regulable,6675656e-7465-45f7-9265-67756c61626c,rev?*
G04 #@! TF.SameCoordinates,Original*
G04 #@! TF.FileFunction,Soldermask,Bot*
G04 #@! TF.FilePolarity,Negative*
%FSLAX46Y46*%
G04 Gerber Fmt 4.6, Leading zero omitted, Abs format (unit mm)*
G04 Created by KiCad (PCBNEW 8.0.3-8.0.3-0~ubuntu20.04.1) date 2025-03-17 01:47:30*
%MOMM*%
%LPD*%
G01*
G04 APERTURE LIST*
G04 Aperture macros list*
%AMRoundRect*
0 Rectangle with rounded corners*
0 $1 Rounding radius*
0 $2 $3 $4 $5 $6 $7 $8 $9 X,Y pos of 4 corners*
0 Add a 4 corners polygon primitive as box body*
4,1,4,$2,$3,$4,$5,$6,$7,$8,$9,$2,$3,0*
0 Add four circle primitives for the rounded corners*
1,1,$1+$1,$2,$3*
1,1,$1+$1,$4,$5*
1,1,$1+$1,$6,$7*
1,1,$1+$1,$8,$9*
0 Add four rect primitives between the rounded corners*
20,1,$1+$1,$2,$3,$4,$5,0*
20,1,$1+$1,$4,$5,$6,$7,0*
20,1,$1+$1,$6,$7,$8,$9,0*
20,1,$1+$1,$8,$9,$2,$3,0*%
G04 Aperture macros list end*
%ADD10R,1.700000X1.700000*%
%ADD11O,1.700000X1.700000*%
%ADD12R,2.000000X1.905000*%
%ADD13O,2.000000X1.905000*%
%ADD14R,2.400000X2.400000*%
%ADD15C,2.400000*%
%ADD16O,3.500000X5.500000*%
%ADD17C,0.650000*%
%ADD18O,2.100000X1.000000*%
%ADD19O,1.800000X1.000000*%
%ADD20RoundRect,0.250000X-0.600000X-0.725000X0.600000X-0.725000X0.600000X0.725000X-0.600000X0.725000X0*%
%ADD21O,1.700000X1.950000*%
%ADD22RoundRect,0.250000X-0.725000X0.600000X-0.725000X-0.600000X0.725000X-0.600000X0.725000X0.600000X0*%
%ADD23O,1.950000X1.700000*%
%ADD24O,2.000000X4.000000*%
%ADD25O,4.000000X2.000000*%
G04 APERTURE END LIST*
D10*
X93500000Y-93475000D03*
D11*
X93500000Y-96015000D03*
X93500000Y-98555000D03*
D12*
X130555000Y-94960000D03*
D13*
X130555000Y-97500000D03*
X130555000Y-100040000D03*
D14*
X104900000Y-103100000D03*
D15*
X99900000Y-103100000D03*
D16*
X80400000Y-111400000D03*
X85400000Y-111400000D03*
X90400000Y-111400000D03*
D17*
X56605000Y-63610000D03*
X56605000Y-69390000D03*
D18*
X57105000Y-62180000D03*
D19*
X52925000Y-62180000D03*
D18*
X57105000Y-70820000D03*
D19*
X52925000Y-70820000D03*
D20*
X115000000Y-60800000D03*
D21*
X117500000Y-60800000D03*
X120000000Y-60800000D03*
X122500000Y-60800000D03*
D20*
X115000000Y-53000000D03*
D21*
X117500000Y-53000000D03*
X120000000Y-53000000D03*
X122500000Y-53000000D03*
D22*
X131500000Y-59500000D03*
D23*
X131500000Y-62000000D03*
X131500000Y-64500000D03*
X131500000Y-67000000D03*
X131500000Y-69500000D03*
D22*
X131500000Y-76000000D03*
D23*
X131500000Y-78500000D03*
X131500000Y-81000000D03*
X131500000Y-83500000D03*
D24*
X124100000Y-111000000D03*
X119100000Y-111000000D03*
D10*
X67975000Y-87900000D03*
D11*
X65435000Y-87900000D03*
D25*
X54000000Y-81500000D03*
X54000000Y-76500000D03*
M02*
