G04 #@! TF.GenerationSoftware,KiCad,Pcbnew,8.0.3-8.0.3-0~ubuntu20.04.1*
G04 #@! TF.CreationDate,2025-03-17T01:47:30-03:00*
G04 #@! TF.ProjectId,fuente_regulable,6675656e-7465-45f7-9265-67756c61626c,rev?*
G04 #@! TF.SameCoordinates,Original*
G04 #@! TF.FileFunction,Soldermask,Top*
G04 #@! TF.FilePolarity,Negative*
%FSLAX46Y46*%
G04 Gerber Fmt 4.6, Leading zero omitted, Abs format (unit mm)*
G04 Created by KiCad (PCBNEW 8.0.3-8.0.3-0~ubuntu20.04.1) date 2025-03-17 01:47:30*
%MOMM*%
%LPD*%
G01*
G04 APERTURE LIST*
G04 Aperture macros list*
%AMRoundRect*
0 Rectangle with rounded corners*
0 $1 Rounding radius*
0 $2 $3 $4 $5 $6 $7 $8 $9 X,Y pos of 4 corners*
0 Add a 4 corners polygon primitive as box body*
4,1,4,$2,$3,$4,$5,$6,$7,$8,$9,$2,$3,0*
0 Add four circle primitives for the rounded corners*
1,1,$1+$1,$2,$3*
1,1,$1+$1,$4,$5*
1,1,$1+$1,$6,$7*
1,1,$1+$1,$8,$9*
0 Add four rect primitives between the rounded corners*
20,1,$1+$1,$2,$3,$4,$5,0*
20,1,$1+$1,$4,$5,$6,$7,0*
20,1,$1+$1,$6,$7,$8,$9,0*
20,1,$1+$1,$8,$9,$2,$3,0*%
G04 Aperture macros list end*
%ADD10RoundRect,0.375000X-0.375000X0.625000X-0.375000X-0.625000X0.375000X-0.625000X0.375000X0.625000X0*%
%ADD11RoundRect,0.500000X-1.400000X0.500000X-1.400000X-0.500000X1.400000X-0.500000X1.400000X0.500000X0*%
%ADD12R,1.700000X1.700000*%
%ADD13O,1.700000X1.700000*%
%ADD14RoundRect,0.250000X-0.450000X0.262500X-0.450000X-0.262500X0.450000X-0.262500X0.450000X0.262500X0*%
%ADD15R,2.000000X1.905000*%
%ADD16O,2.000000X1.905000*%
%ADD17R,2.900000X5.400000*%
%ADD18R,2.400000X2.400000*%
%ADD19C,2.400000*%
%ADD20RoundRect,0.250000X-1.500000X-1.000000X1.500000X-1.000000X1.500000X1.000000X-1.500000X1.000000X0*%
%ADD21R,3.900000X3.900000*%
%ADD22R,1.500000X0.900000*%
%ADD23R,0.900000X1.500000*%
%ADD24RoundRect,0.250000X-0.300000X2.050000X-0.300000X-2.050000X0.300000X-2.050000X0.300000X2.050000X0*%
%ADD25RoundRect,0.250002X-5.149998X4.449998X-5.149998X-4.449998X5.149998X-4.449998X5.149998X4.449998X0*%
%ADD26RoundRect,0.150000X-0.150000X0.825000X-0.150000X-0.825000X0.150000X-0.825000X0.150000X0.825000X0*%
%ADD27RoundRect,0.150000X-0.725000X-0.150000X0.725000X-0.150000X0.725000X0.150000X-0.725000X0.150000X0*%
%ADD28R,1.250000X0.900000*%
%ADD29O,3.500000X5.500000*%
%ADD30RoundRect,0.200000X0.275000X-0.200000X0.275000X0.200000X-0.275000X0.200000X-0.275000X-0.200000X0*%
%ADD31RoundRect,0.200000X-0.275000X0.200000X-0.275000X-0.200000X0.275000X-0.200000X0.275000X0.200000X0*%
%ADD32RoundRect,0.200000X-0.200000X-0.275000X0.200000X-0.275000X0.200000X0.275000X-0.200000X0.275000X0*%
%ADD33RoundRect,0.250000X-1.425000X0.362500X-1.425000X-0.362500X1.425000X-0.362500X1.425000X0.362500X0*%
%ADD34RoundRect,0.250000X1.425000X-0.362500X1.425000X0.362500X-1.425000X0.362500X-1.425000X-0.362500X0*%
%ADD35RoundRect,0.150000X0.150000X-0.587500X0.150000X0.587500X-0.150000X0.587500X-0.150000X-0.587500X0*%
%ADD36C,0.650000*%
%ADD37RoundRect,0.150000X-0.425000X0.150000X-0.425000X-0.150000X0.425000X-0.150000X0.425000X0.150000X0*%
%ADD38RoundRect,0.075000X-0.500000X0.075000X-0.500000X-0.075000X0.500000X-0.075000X0.500000X0.075000X0*%
%ADD39O,2.100000X1.000000*%
%ADD40O,1.800000X1.000000*%
%ADD41R,5.400000X2.900000*%
%ADD42RoundRect,0.250000X-0.600000X-0.725000X0.600000X-0.725000X0.600000X0.725000X-0.600000X0.725000X0*%
%ADD43O,1.700000X1.950000*%
%ADD44RoundRect,0.250000X-0.725000X0.600000X-0.725000X-0.600000X0.725000X-0.600000X0.725000X0.600000X0*%
%ADD45O,1.950000X1.700000*%
%ADD46O,2.000000X4.000000*%
%ADD47O,4.000000X2.000000*%
%ADD48RoundRect,0.250000X-0.625000X0.375000X-0.625000X-0.375000X0.625000X-0.375000X0.625000X0.375000X0*%
%ADD49RoundRect,0.250000X1.000000X0.650000X-1.000000X0.650000X-1.000000X-0.650000X1.000000X-0.650000X0*%
%ADD50RoundRect,0.218750X0.256250X-0.218750X0.256250X0.218750X-0.256250X0.218750X-0.256250X-0.218750X0*%
%ADD51RoundRect,0.250000X-1.500000X-0.900000X1.500000X-0.900000X1.500000X0.900000X-1.500000X0.900000X0*%
%ADD52RoundRect,0.150000X0.150000X0.200000X-0.150000X0.200000X-0.150000X-0.200000X0.150000X-0.200000X0*%
%ADD53RoundRect,0.112500X0.187500X0.112500X-0.187500X0.112500X-0.187500X-0.112500X0.187500X-0.112500X0*%
%ADD54RoundRect,0.218750X0.218750X0.256250X-0.218750X0.256250X-0.218750X-0.256250X0.218750X-0.256250X0*%
%ADD55RoundRect,0.250000X-1.000000X-0.900000X1.000000X-0.900000X1.000000X0.900000X-1.000000X0.900000X0*%
%ADD56RoundRect,0.250000X0.475000X-0.250000X0.475000X0.250000X-0.475000X0.250000X-0.475000X-0.250000X0*%
%ADD57RoundRect,0.250000X-0.475000X0.250000X-0.475000X-0.250000X0.475000X-0.250000X0.475000X0.250000X0*%
%ADD58RoundRect,0.250000X-1.950000X-1.000000X1.950000X-1.000000X1.950000X1.000000X-1.950000X1.000000X0*%
%ADD59RoundRect,0.250000X-0.250000X-0.475000X0.250000X-0.475000X0.250000X0.475000X-0.250000X0.475000X0*%
%ADD60RoundRect,0.225000X-0.250000X0.225000X-0.250000X-0.225000X0.250000X-0.225000X0.250000X0.225000X0*%
%ADD61RoundRect,0.250000X0.250000X0.475000X-0.250000X0.475000X-0.250000X-0.475000X0.250000X-0.475000X0*%
%ADD62RoundRect,0.249999X0.450001X1.450001X-0.450001X1.450001X-0.450001X-1.450001X0.450001X-1.450001X0*%
%ADD63RoundRect,0.225000X-0.225000X-0.250000X0.225000X-0.250000X0.225000X0.250000X-0.225000X0.250000X0*%
%ADD64RoundRect,0.225000X0.250000X-0.225000X0.250000X0.225000X-0.250000X0.225000X-0.250000X-0.225000X0*%
G04 APERTURE END LIST*
D10*
X79400000Y-82950000D03*
D11*
X81700000Y-89250000D03*
D10*
X81700000Y-82950000D03*
X84000000Y-82950000D03*
D12*
X93500000Y-93475000D03*
D13*
X93500000Y-96015000D03*
X93500000Y-98555000D03*
D14*
X126300000Y-99987500D03*
X126300000Y-101812500D03*
D15*
X130555000Y-94960000D03*
D16*
X130555000Y-97500000D03*
X130555000Y-100040000D03*
D17*
X112550000Y-93600000D03*
X122450000Y-93600000D03*
D18*
X104900000Y-103100000D03*
D19*
X99900000Y-103100000D03*
D20*
X109500000Y-73500000D03*
X116000000Y-73500000D03*
D21*
X77100000Y-59100000D03*
D22*
X87350000Y-51380000D03*
X87350000Y-52650000D03*
X87350000Y-53920000D03*
X87350000Y-55190000D03*
X87350000Y-56460000D03*
X87350000Y-57730000D03*
X87350000Y-59000000D03*
X87350000Y-60270000D03*
X87350000Y-61540000D03*
X87350000Y-62810000D03*
X87350000Y-64080000D03*
X87350000Y-65350000D03*
X87350000Y-66620000D03*
X87350000Y-67890000D03*
D23*
X85585000Y-69140000D03*
X84315000Y-69140000D03*
X83045000Y-69140000D03*
X81775000Y-69140000D03*
X80505000Y-69140000D03*
X79235000Y-69140000D03*
X77965000Y-69140000D03*
X76695000Y-69140000D03*
X75425000Y-69140000D03*
X74155000Y-69140000D03*
X72885000Y-69140000D03*
X71615000Y-69140000D03*
D22*
X69850000Y-67890000D03*
X69850000Y-66620000D03*
X69850000Y-65350000D03*
X69850000Y-64080000D03*
X69850000Y-62810000D03*
X69850000Y-61540000D03*
X69850000Y-60270000D03*
X69850000Y-59000000D03*
X69850000Y-57730000D03*
X69850000Y-56460000D03*
X69850000Y-55190000D03*
X69850000Y-53920000D03*
X69850000Y-52650000D03*
X69850000Y-51380000D03*
D24*
X71900000Y-100225000D03*
X70200000Y-100225000D03*
X68500000Y-100225000D03*
D25*
X68500000Y-109375000D03*
D24*
X66800000Y-100225000D03*
X65100000Y-100225000D03*
D26*
X96105000Y-82325000D03*
X94835000Y-82325000D03*
X93565000Y-82325000D03*
X92295000Y-82325000D03*
X92295000Y-87275000D03*
X93565000Y-87275000D03*
X94835000Y-87275000D03*
X96105000Y-87275000D03*
D27*
X109850000Y-81190000D03*
X109850000Y-82460000D03*
X109850000Y-83730000D03*
X109850000Y-85000000D03*
X115000000Y-85000000D03*
X115000000Y-83730000D03*
X115000000Y-82460000D03*
X115000000Y-81190000D03*
D28*
X96625000Y-51650000D03*
X92775000Y-51650000D03*
X92775000Y-53150000D03*
X96625000Y-53150000D03*
X104825000Y-51550000D03*
X100975000Y-51550000D03*
X100975000Y-53050000D03*
X104825000Y-53050000D03*
D29*
X80400000Y-111400000D03*
X85400000Y-111400000D03*
X90400000Y-111400000D03*
D30*
X67500000Y-79025000D03*
X67500000Y-77375000D03*
D31*
X74800000Y-72975000D03*
X74800000Y-74625000D03*
X77900000Y-73075000D03*
X77900000Y-74725000D03*
X75500000Y-103350000D03*
X75500000Y-105000000D03*
X75500000Y-100350000D03*
X75500000Y-102000000D03*
D30*
X97000000Y-57200000D03*
X97000000Y-55550000D03*
X103500000Y-57800000D03*
X103500000Y-56150000D03*
D32*
X91600000Y-57100000D03*
X93250000Y-57100000D03*
D33*
X100700000Y-84837500D03*
X100700000Y-90762500D03*
D34*
X106800000Y-92862500D03*
X106800000Y-86937500D03*
D35*
X69600000Y-78700000D03*
X71500000Y-78700000D03*
X70550000Y-76825000D03*
D36*
X56605000Y-63610000D03*
X56605000Y-69390000D03*
D37*
X57680000Y-63300000D03*
X57680000Y-64100000D03*
D38*
X57680000Y-65250000D03*
X57680000Y-66250000D03*
X57680000Y-66750000D03*
X57680000Y-67750000D03*
D37*
X57680000Y-68900000D03*
X57680000Y-69700000D03*
X57680000Y-69700000D03*
X57680000Y-68900000D03*
D38*
X57680000Y-68250000D03*
X57680000Y-67250000D03*
X57680000Y-65750000D03*
X57680000Y-64750000D03*
D37*
X57680000Y-64100000D03*
X57680000Y-63300000D03*
D39*
X57105000Y-62180000D03*
D40*
X52925000Y-62180000D03*
D39*
X57105000Y-70820000D03*
D40*
X52925000Y-70820000D03*
D41*
X84500000Y-103450000D03*
X84500000Y-93550000D03*
D42*
X115000000Y-60800000D03*
D43*
X117500000Y-60800000D03*
X120000000Y-60800000D03*
X122500000Y-60800000D03*
D42*
X115000000Y-53000000D03*
D43*
X117500000Y-53000000D03*
X120000000Y-53000000D03*
X122500000Y-53000000D03*
D44*
X131500000Y-59500000D03*
D45*
X131500000Y-62000000D03*
X131500000Y-64500000D03*
X131500000Y-67000000D03*
X131500000Y-69500000D03*
D44*
X131500000Y-76000000D03*
D45*
X131500000Y-78500000D03*
X131500000Y-81000000D03*
X131500000Y-83500000D03*
D46*
X124100000Y-111000000D03*
X119100000Y-111000000D03*
D12*
X67975000Y-87900000D03*
D13*
X65435000Y-87900000D03*
D47*
X54000000Y-81500000D03*
X54000000Y-76500000D03*
D48*
X62400000Y-79700000D03*
X62400000Y-82500000D03*
D49*
X72500000Y-81700000D03*
X68500000Y-81700000D03*
D50*
X74800000Y-77875000D03*
X74800000Y-76300000D03*
X77900000Y-77887500D03*
X77900000Y-76312500D03*
D51*
X69200000Y-94000000D03*
X74600000Y-94000000D03*
D52*
X60800000Y-69000000D03*
X62200000Y-69000000D03*
X60800000Y-67500000D03*
X62200000Y-67500000D03*
X60800000Y-66000000D03*
X62200000Y-66000000D03*
D53*
X62550000Y-71000000D03*
X60450000Y-71000000D03*
D54*
X93187500Y-58800000D03*
X91612500Y-58800000D03*
D55*
X112650000Y-102800000D03*
X116950000Y-102800000D03*
D56*
X86900000Y-85150000D03*
X86900000Y-83250000D03*
D57*
X76900000Y-82950000D03*
X76900000Y-84850000D03*
D58*
X52800000Y-94500000D03*
X60200000Y-94500000D03*
D59*
X58600000Y-88500000D03*
X60500000Y-88500000D03*
D58*
X52800000Y-104000000D03*
X60200000Y-104000000D03*
D59*
X59000000Y-110000000D03*
X60900000Y-110000000D03*
X59050000Y-112500000D03*
X60950000Y-112500000D03*
D60*
X98600000Y-55625000D03*
X98600000Y-57175000D03*
X105100000Y-56125000D03*
X105100000Y-57675000D03*
D61*
X64900000Y-73000000D03*
X63000000Y-73000000D03*
D60*
X66500000Y-52725000D03*
X66500000Y-54275000D03*
D57*
X64500000Y-52550000D03*
X64500000Y-54450000D03*
D62*
X113550000Y-111700000D03*
X109450000Y-111700000D03*
D63*
X117825000Y-84400000D03*
X119375000Y-84400000D03*
D64*
X104400000Y-75475000D03*
X104400000Y-73925000D03*
M02*
